<?xml version="1.0" standalone="no"?>
<!DOCTYPE svg PUBLIC "-//W3C//DTD SVG 20010904//EN"
 "http://www.w3.org/TR/2001/REC-SVG-20010904/DTD/svg10.dtd">
<svg version="1.0" xmlns="http://www.w3.org/2000/svg"
 width="90px" height="90px" viewBox="0 0 1705.000000 2134.000000"
 preserveAspectRatio="xMidYMid meet">

<g transform="translate(0.000000,2134.000000) scale(0.100000,-0.100000)"
fill="#000000" stroke="none">
<path d="M7662 21276 c-330 -163 -561 -354 -719 -594 -293 -445 -237 -967 144
-1345 210 -207 449 -335 788 -422 135 -34 364 -71 388 -62 30 12 87 295 87
437 0 109 -25 256 -62 367 -46 141 -125 288 -287 538 -243 376 -303 522 -304
740 0 128 21 222 77 349 14 31 23 56 22 56 -2 0 -62 -29 -134 -64z"/>
<path d="M8646 19798 c5 -7 30 -46 56 -85 312 -466 246 -836 -209 -1175 -190
-142 -376 -245 -983 -546 -525 -260 -771 -401 -1003 -576 -305 -230 -506 -486
-603 -768 -46 -137 -59 -222 -59 -408 l0 -175 41 -85 c61 -124 85 -210 91
-321 13 -240 -112 -395 -377 -466 -95 -25 -298 -22 -405 6 -245 64 -400 210
-413 389 -12 168 76 335 283 537 l103 101 -13 89 c-102 679 -678 1127 -1704
1325 -80 16 -147 27 -148 26 -1 -1 28 -22 65 -46 83 -54 215 -185 267 -265 50
-76 99 -190 126 -291 30 -112 37 -375 15 -535 -73 -520 -328 -1117 -951 -2224
-366 -651 -547 -1151 -621 -1720 -26 -197 -24 -547 4 -730 104 -670 449 -1184
1042 -1553 104 -65 351 -192 450 -231 l55 -21 49 -201 c98 -408 231 -770 410
-1114 718 -1380 2088 -2262 3706 -2386 199 -15 687 -7 870 15 567 68 1061 210
1545 445 1089 528 1869 1432 2262 2621 65 197 130 449 169 657 l28 153 151 74
c896 446 1497 1186 1674 2065 46 227 55 325 55 591 -1 269 -13 398 -65 655
-225 1122 -1026 2353 -2314 3555 -99 93 -192 177 -206 188 l-25 21 9 -67 c5
-37 7 -134 4 -217 -7 -199 -42 -339 -126 -510 -71 -143 -130 -222 -245 -333
-142 -136 -308 -230 -494 -279 -135 -36 -337 -38 -460 -5 -376 101 -620 397
-728 884 -25 111 -28 142 -28 313 0 225 6 258 119 651 100 348 115 421 122
590 4 110 2 158 -11 225 -79 388 -425 698 -1101 987 -123 52 -465 182 -480
182 -4 0 -3 -6 1 -12z m85 -4389 c769 -131 1280 -653 1410 -1442 12 -72 23
-133 24 -135 2 -2 59 8 127 22 1246 255 2161 -94 2492 -950 36 -94 75 -239 98
-364 17 -98 18 -536 0 -640 -21 -131 -54 -280 -61 -280 -4 0 -15 26 -25 58
-123 387 -511 811 -1028 1120 -514 306 -1213 553 -1933 682 -66 12 -121 23
-123 25 -2 1 10 22 26 46 51 77 67 134 66 234 -1 82 -6 104 -58 255 -81 234
-125 319 -211 406 -72 73 -142 114 -226 133 -28 7 -410 11 -1055 11 -978 0
-1014 -1 -1075 -20 -76 -23 -138 -61 -198 -121 -88 -88 -139 -192 -225 -456
-66 -204 -62 -302 17 -434 l33 -56 -175 -33 c-539 -101 -1080 -273 -1551 -492
-213 -100 -508 -281 -690 -424 -127 -100 -375 -354 -452 -464 -123 -174 -245
-444 -264 -584 -4 -27 -11 -43 -16 -38 -15 15 -65 231 -78 336 -17 135 -8 381
20 511 200 946 1212 1632 2350 1592 96 -4 236 -15 310 -27 74 -11 137 -16 140
-12 4 4 14 49 24 101 60 324 245 657 499 898 342 323 814 526 1322 567 109 9
365 -4 486 -25z m424 -1461 c10 -29 20 -59 23 -65 3 -10 -184 -13 -917 -13
-583 0 -921 4 -921 10 0 5 9 34 21 65 l20 55 878 0 877 0 19 -52z m-545 -738
c548 -26 1021 -93 1486 -210 1218 -305 2019 -891 2150 -1570 18 -90 20 -268 4
-365 -43 -269 -212 -548 -478 -788 -565 -510 -1564 -867 -2743 -982 -140 -14
-275 -16 -835 -12 -617 3 -683 5 -849 25 -725 90 -1322 247 -1844 486 -341
156 -675 383 -869 591 -395 423 -485 894 -256 1349 331 659 1335 1185 2654
1390 505 79 1077 110 1580 86z m-3987 -3940 c602 -1007 1262 -1686 1892 -1945
102 -42 507 -187 511 -182 1 1 -90 59 -204 127 -251 152 -383 243 -527 365
-406 342 -732 808 -969 1383 -48 116 -158 432 -151 432 2 0 75 -29 161 -65
383 -160 862 -299 1324 -385 63 -12 116 -23 118 -25 2 -2 -40 -140 -93 -307
-116 -360 -114 -355 -115 -438 0 -141 50 -250 170 -371 71 -72 101 -94 180
-133 162 -79 98 -76 1330 -76 1232 0 1168 -3 1329 76 118 58 240 173 290 272
79 158 80 267 1 497 -61 182 -153 476 -148 479 2 2 82 18 178 36 465 88 967
238 1342 400 50 22 94 38 96 35 8 -7 -73 -241 -140 -410 -196 -486 -457 -893
-783 -1220 -211 -212 -369 -331 -715 -540 -107 -65 -199 -122 -205 -127 -5 -5
76 21 180 57 105 37 216 76 248 87 159 55 440 216 630 360 512 390 1051 1075
1531 1948 47 85 90 162 95 170 18 26 2 -34 -55 -205 -269 -815 -773 -1506
-1447 -1987 -546 -389 -1198 -636 -1917 -725 -182 -22 -773 -26 -940 -5 -550
68 -984 193 -1430 413 -411 202 -704 412 -1031 738 -373 373 -636 764 -848
1260 -57 133 -181 484 -181 512 0 8 48 -72 106 -176 58 -105 142 -251 187
-325z m4594 -660 c83 -212 109 -319 85 -358 -7 -10 -225 -12 -1057 -10 l-1049
3 -6 25 c-10 40 8 116 62 260 28 74 55 143 60 153 8 16 61 17 940 15 l932 -3
33 -85z"/>
<path d="M7825 12900 c-164 -10 -575 -49 -587 -57 -5 -2 -8 -101 -8 -219 l0
-214 1030 0 1030 0 0 215 c0 248 17 217 -130 234 -327 40 -998 60 -1335 41z"/>
<path d="M6895 12790 c-405 -76 -725 -166 -1085 -307 -90 -35 -166 -66 -169
-68 -2 -3 323 -5 722 -5 l727 0 0 205 0 205 -22 -1 c-13 0 -90 -13 -173 -29z"/>
<path d="M9422 12619 l3 -204 724 -3 c399 -1 721 1 718 5 -12 12 -330 133
-467 178 -268 87 -719 195 -928 221 l-52 7 2 -204z"/>
<path d="M5208 12171 c-120 -80 -204 -147 -318 -251 l-65 -60 3430 0 3429 0
-39 41 c-71 73 -217 191 -338 271 l-119 78 -884 0 -884 0 0 -90 0 -90 -65 0
-65 0 0 90 0 90 -1030 0 -1030 0 0 -90 0 -91 -67 3 -68 3 -3 88 -3 87 -882 0
-882 0 -117 -79z"/>
<path d="M4651 11598 c-44 -91 -59 -133 -85 -250 l-6 -28 3696 0 3696 0 -7 48
c-11 72 -42 160 -89 248 l-42 79 -3556 3 -3556 2 -51 -102z"/>
<path d="M4566 11133 c24 -109 51 -189 90 -265 l46 -88 3556 2 3556 3 37 63
c40 69 86 197 96 267 l6 45 -3697 0 -3696 0 6 -27z"/>
<path d="M4905 10544 c99 -93 231 -195 349 -268 l89 -56 874 0 873 0 0 100 0
100 70 0 70 0 0 -100 0 -100 1030 0 1030 0 0 100 0 100 65 0 64 0 3 -97 3 -98
875 -3 876 -2 109 71 c60 39 136 92 169 117 69 53 219 189 224 203 2 5 -1362
9 -3425 9 l-3428 -1 80 -75z"/>
<path d="M5770 10009 c370 -148 797 -267 1214 -338 l106 -18 0 204 0 203 -722
-1 -723 0 125 -50z"/>
<path d="M7230 9846 l0 -213 57 -7 c405 -48 657 -60 1103 -53 346 5 539 17
803 48 l97 12 0 214 0 213 -1030 0 -1030 0 0 -214z"/>
<path d="M9420 9861 c0 -110 3 -202 8 -204 13 -8 370 62 561 109 229 56 429
118 634 195 289 110 348 97 -480 98 l-723 1 0 -199z"/>
<path d="M6051 5916 c-7 -8 -27 -17 -46 -20 l-35 -7 -2 -212 c-2 -117 -3 -286
-4 -377 0 -91 -1 -170 -2 -177 -2 -15 -37 -20 -184 -28 -104 -5 -118 -4 -118
10 0 9 -4 13 -10 10 -13 -8 -12 -17 -20 125 l-6 125 -2 -127 c-1 -78 -6 -128
-12 -128 -6 0 -10 70 -11 188 0 103 -5 210 -9 237 -6 35 -8 -4 -6 -125 1 -96
-1 -161 -5 -145 -4 17 -8 134 -9 260 -2 188 -4 217 -11 160 -5 -40 -6 -183 -2
-323 5 -139 5 -252 2 -252 -16 0 -19 64 -19 366 0 316 6 384 33 384 9 0 12
-32 11 -107 l-1 -108 7 100 c4 55 9 107 11 115 4 16 3 17 -41 30 -18 5 -30 5
-30 -1 0 -5 -11 -9 -24 -9 -14 0 -28 -5 -32 -11 -3 -6 -17 -9 -30 -6 -14 2
-27 0 -30 -5 -3 -5 -14 -6 -24 -3 -15 5 -19 -2 -24 -42 -4 -26 -7 -390 -8
-808 -1 -1056 -2 -997 19 -1013 10 -7 27 -12 38 -11 11 1 25 0 30 -1 27 -6
132 3 144 13 11 9 15 9 18 -1 12 -34 23 9 23 92 0 153 13 346 21 306 4 -19 4
67 2 193 -5 188 -3 227 8 228 71 4 292 0 297 -6 4 -4 7 -185 8 -403 0 -366 2
-397 17 -394 10 2 17 -4 17 -14 0 -13 6 -15 30 -10 17 3 44 9 61 12 22 5 30 3
25 -4 -4 -6 3 -16 14 -22 11 -6 20 -7 20 -2 0 4 7 17 16 28 15 19 15 18 11 -3
-3 -13 -2 -23 2 -23 16 0 51 33 52 48 0 14 2 13 9 -3 11 -25 10 -93 13 962 2
485 0 881 -3 881 -24 -2 -40 4 -40 16 0 11 -7 12 -27 7 -20 -5 -32 -2 -51 16
-14 13 -27 21 -30 18 -2 -2 -13 0 -22 5 -13 7 -21 5 -29 -4z m-534 -243 c0
-84 -3 -135 -7 -118 -11 42 -12 265 -2 265 5 0 9 -66 9 -147z m580 -165 c-2
-13 -4 -5 -4 17 -1 22 1 32 4 23 2 -10 2 -28 0 -40z m-580 -120 c-2 -13 -4 -5
-4 17 -1 22 1 32 4 23 2 -10 2 -28 0 -40z m570 -120 c-2 -18 -4 -4 -4 32 0 36
2 50 4 33 2 -18 2 -48 0 -65z m-498 -105 c-1 -55 -2 -56 -9 -19 -7 35 -3 76 6
76 2 0 3 -26 3 -57z m343 -104 c-20 -6 -66 -6 -120 -1 l-87 9 120 1 c91 0 112
-2 87 -9z m-17 -80 c-81 -12 -265 -10 -265 1 0 7 39 10 114 8 63 -1 117 0 120
3 3 3 22 3 43 0 l38 -5 -50 -7z m-137 -106 c-21 -2 -57 -2 -80 0 -24 2 -7 4
37 4 44 0 63 -2 43 -4z m-218 -168 l-7 -90 -2 100 c0 58 3 95 8 90 5 -6 6 -49
1 -100z m62 -237 c0 -178 -4 -354 -9 -393 -8 -53 -10 28 -10 333 0 259 4 399
10 393 6 -6 10 -138 9 -333z m467 60 c0 -90 2 -228 5 -308 4 -89 3 -137 -3
-125 -20 46 -25 595 -5 595 2 0 4 -73 3 -162z m-65 -88 c8 -192 9 -210 5 -310
l-2 -75 -8 70 c-12 110 -21 523 -11 500 5 -11 12 -94 16 -185z m166 -235 c2
-65 5 -82 10 -60 7 27 8 25 9 -17 1 -50 -13 -73 -22 -35 -3 12 -8 92 -10 177
-4 102 -3 133 3 90 4 -36 9 -105 10 -155z m-63 -22 c-2 -16 -4 -3 -4 27 0 30
2 43 4 28 2 -16 2 -40 0 -55z m110 -80 c-2 -16 -4 -5 -4 22 0 28 2 40 4 28 2
-13 2 -35 0 -50z m-240 -5 c-2 -13 -4 -5 -4 17 -1 22 1 32 4 23 2 -10 2 -28 0
-40z m-430 -25 c-3 -10 -5 -2 -5 17 0 19 2 27 5 18 2 -10 2 -26 0 -35z m583
22 c0 -8 -4 -17 -10 -20 -6 -4 -10 5 -10 20 0 15 4 24 10 20 6 -3 10 -12 10
-20z m17 -7 c-3 -8 -6 -5 -6 6 -1 11 2 17 5 13 3 -3 4 -12 1 -19z"/>
<path d="M11811 5916 c-7 -8 -27 -17 -46 -20 l-35 -7 -2 -212 c-2 -117 -3
-286 -4 -377 0 -91 -1 -170 -2 -177 -2 -15 -37 -20 -184 -28 -104 -5 -118 -4
-118 10 0 9 -4 13 -10 10 -13 -8 -12 -17 -20 125 l-6 125 -2 -127 c-1 -78 -6
-128 -12 -128 -6 0 -10 70 -11 188 0 103 -5 210 -9 237 -6 35 -8 -4 -6 -125 1
-96 -1 -161 -5 -145 -4 17 -8 134 -9 260 -2 188 -4 217 -11 160 -5 -40 -6
-183 -2 -323 5 -139 5 -252 2 -252 -16 0 -19 64 -19 366 0 316 6 384 33 384 9
0 12 -32 11 -107 l-1 -108 7 100 c4 55 9 107 11 115 4 16 3 17 -41 30 -18 5
-30 5 -30 -1 0 -5 -11 -9 -24 -9 -14 0 -28 -5 -32 -11 -3 -6 -17 -9 -30 -6
-14 2 -27 0 -30 -5 -3 -5 -14 -6 -24 -3 -15 5 -19 -2 -24 -42 -4 -26 -7 -390
-8 -808 -1 -1056 -2 -997 19 -1013 10 -7 27 -12 38 -11 11 1 25 0 30 -1 27 -6
132 3 144 13 11 9 15 9 18 -1 12 -34 23 9 23 92 0 153 13 346 21 306 4 -19 4
67 2 193 -5 188 -3 227 8 228 71 4 292 0 297 -6 4 -4 7 -185 8 -403 0 -366 2
-397 17 -394 10 2 17 -4 17 -14 0 -13 6 -15 30 -10 17 3 44 9 61 12 22 5 30 3
25 -4 -4 -6 3 -16 14 -22 11 -6 20 -7 20 -2 0 4 7 17 16 28 15 19 15 18 11 -3
-3 -13 -2 -23 2 -23 16 0 51 33 52 48 0 14 2 13 9 -3 11 -25 10 -93 13 962 2
485 0 881 -3 881 -24 -2 -40 4 -40 16 0 11 -7 12 -27 7 -20 -5 -32 -2 -51 16
-14 13 -27 21 -30 18 -2 -2 -13 0 -22 5 -13 7 -21 5 -29 -4z m-534 -243 c0
-84 -3 -135 -7 -118 -11 42 -12 265 -2 265 5 0 9 -66 9 -147z m580 -165 c-2
-13 -4 -5 -4 17 -1 22 1 32 4 23 2 -10 2 -28 0 -40z m-580 -120 c-2 -13 -4 -5
-4 17 -1 22 1 32 4 23 2 -10 2 -28 0 -40z m570 -120 c-2 -18 -4 -4 -4 32 0 36
2 50 4 33 2 -18 2 -48 0 -65z m-498 -105 c-1 -55 -2 -56 -9 -19 -7 35 -3 76 6
76 2 0 3 -26 3 -57z m343 -104 c-20 -6 -66 -6 -120 -1 l-87 9 120 1 c91 0 112
-2 87 -9z m-17 -80 c-81 -12 -265 -10 -265 1 0 7 39 10 114 8 63 -1 117 0 120
3 3 3 22 3 43 0 l38 -5 -50 -7z m-137 -106 c-21 -2 -57 -2 -80 0 -24 2 -7 4
37 4 44 0 63 -2 43 -4z m-218 -168 l-7 -90 -2 100 c0 58 3 95 8 90 5 -6 6 -49
1 -100z m62 -237 c0 -178 -4 -354 -9 -393 -8 -53 -10 28 -10 333 0 259 4 399
10 393 6 -6 10 -138 9 -333z m467 60 c0 -90 2 -228 5 -308 4 -89 3 -137 -3
-125 -20 46 -25 595 -5 595 2 0 4 -73 3 -162z m-65 -88 c8 -192 9 -210 5 -310
l-2 -75 -8 70 c-12 110 -21 523 -11 500 5 -11 12 -94 16 -185z m166 -235 c2
-65 5 -82 10 -60 7 27 8 25 9 -17 1 -50 -13 -73 -22 -35 -3 12 -8 92 -10 177
-4 102 -3 133 3 90 4 -36 9 -105 10 -155z m-63 -22 c-2 -16 -4 -3 -4 27 0 30
2 43 4 28 2 -16 2 -40 0 -55z m110 -80 c-2 -16 -4 -5 -4 22 0 28 2 40 4 28 2
-13 2 -35 0 -50z m-240 -5 c-2 -13 -4 -5 -4 17 -1 22 1 32 4 23 2 -10 2 -28 0
-40z m-430 -25 c-3 -10 -5 -2 -5 17 0 19 2 27 5 18 2 -10 2 -26 0 -35z m583
22 c0 -8 -4 -17 -10 -20 -6 -4 -10 5 -10 20 0 15 4 24 10 20 6 -3 10 -12 10
-20z m17 -7 c-3 -8 -6 -5 -6 6 -1 11 2 17 5 13 3 -3 4 -12 1 -19z"/>
<path d="M4532 5900 c-92 -24 -126 -45 -194 -118 -38 -42 -61 -79 -81 -132
-53 -137 -59 -188 -63 -545 -2 -181 -6 -411 -9 -510 -9 -281 20 -385 139 -509
49 -51 76 -69 137 -94 100 -41 165 -48 254 -28 194 46 348 226 375 440 5 40
10 208 11 373 1 237 -1 304 -12 321 -13 21 -19 22 -219 21 -131 0 -218 -4
-240 -12 l-35 -12 -3 -121 c-4 -156 -5 -154 121 -147 l94 6 7 -51 c6 -46 -5
-245 -20 -364 -4 -32 -17 -62 -40 -93 -48 -61 -86 -80 -161 -76 -33 2 -88 55
-101 99 -20 66 -30 246 -27 465 3 189 2 198 -5 77 -4 -74 -9 -155 -10 -180
l-2 -45 -10 45 c-5 25 -7 91 -4 148 6 123 -4 329 -15 292 -4 -14 -7 22 -7 80
1 74 3 93 8 65 6 -34 7 -30 9 32 0 39 8 104 16 143 8 39 14 74 13 78 -1 4 6
24 16 45 21 43 61 78 81 71 7 -3 36 -1 64 4 29 5 49 7 46 4 -3 -3 12 -13 33
-22 50 -23 107 -73 120 -107 6 -16 15 -70 20 -122 7 -86 7 -94 -10 -99 -10 -2
-15 -8 -12 -13 6 -10 175 -10 189 1 6 4 22 10 37 14 21 5 29 14 34 42 10 54
-4 189 -27 269 -19 61 -29 77 -83 130 -76 73 -152 119 -231 140 -76 19 -113
18 -203 -5z m-92 -74 c0 -2 -8 -10 -17 -17 -16 -13 -17 -12 -4 4 13 16 21 21
21 13z m-40 -30 c0 -2 -8 -10 -17 -17 -16 -13 -17 -12 -4 4 13 16 21 21 21 13z
m209 -60 c-2 -2 -22 -6 -44 -9 -28 -5 -34 -4 -20 3 19 8 73 14 64 6z m146 -41
c54 -30 98 -65 82 -65 -3 0 -32 17 -64 38 -32 21 -67 44 -78 50 -11 6 -16 12
-11 12 5 0 37 -16 71 -35z m-295 -29 c0 -2 -8 -10 -17 -17 -16 -13 -17 -12 -4
4 13 16 21 21 21 13z m-169 -33 c-12 -20 -14 -14 -5 12 4 9 9 14 11 11 3 -2 0
-13 -6 -23z m696 -190 c-3 -10 -5 -4 -5 12 0 17 2 24 5 18 2 -7 2 -21 0 -30z
m-100 -55 c-3 -7 -5 -2 -5 12 0 14 2 19 5 13 2 -7 2 -19 0 -25z m50 10 c-3 -8
-6 -5 -6 6 -1 11 2 17 5 13 3 -3 4 -12 1 -19z m-700 -105 c-2 -16 -4 -3 -4 27
0 30 2 43 4 28 2 -16 2 -40 0 -55z m130 -125 c-2 -24 -4 -5 -4 42 0 47 2 66 4
43 2 -24 2 -62 0 -85z m-110 -115 c-2 -21 -4 -4 -4 37 0 41 2 58 4 38 2 -21 2
-55 0 -75z m115 -209 l-9 -149 0 210 c0 166 1 197 9 149 6 -37 6 -118 0 -210z
m-145 -17 c-2 -23 -3 -1 -3 48 0 50 1 68 3 42 2 -26 2 -67 0 -90z m810 -104
c-2 -16 -4 -5 -4 22 0 28 2 40 4 28 2 -13 2 -35 0 -50z m-780 -35 c-2 -18 -4
-6 -4 27 0 33 2 48 4 33 2 -15 2 -42 0 -60z m190 -105 c-2 -16 -4 -3 -4 27 0
30 2 43 4 28 2 -16 2 -40 0 -55z m-80 -20 c-2 -16 -4 -5 -4 22 0 28 2 40 4 28
2 -13 2 -35 0 -50z m-60 10 c-3 -10 -5 -4 -5 12 0 17 2 24 5 18 2 -7 2 -21 0
-30z m-50 -140 c-2 -27 -3 -5 -3 47 0 52 1 74 3 48 2 -27 2 -69 0 -95z m143
-141 c9 -30 31 -59 69 -95 44 -40 48 -47 21 -30 -86 52 -131 153 -129 287 l2
81 11 -100 c7 -55 18 -119 26 -143z m54 129 c4 -35 16 -85 26 -112 11 -27 18
-49 16 -49 -2 0 -18 25 -36 56 -32 58 -50 145 -36 181 11 28 22 0 30 -76z
m403 32 c-3 -10 -5 -4 -5 12 0 17 2 24 5 18 2 -7 2 -21 0 -30z m-460 -40 c-3
-10 -5 -4 -5 12 0 17 2 24 5 18 2 -7 2 -21 0 -30z m-130 -75 c-3 -7 -5 -2 -5
12 0 14 2 19 5 13 2 -7 2 -19 0 -25z m743 -8 c0 -5 -2 -10 -4 -10 -3 0 -8 5
-11 10 -3 6 -1 10 4 10 6 0 11 -4 11 -10z m-733 -32 c-3 -8 -6 -5 -6 6 -1 11
2 17 5 13 3 -3 4 -12 1 -19z m709 -2 c0 -14 -5 -21 -9 -17 -4 4 -5 15 -1 24 9
24 12 21 10 -7z m-673 -69 c14 -26 22 -45 16 -42 -10 7 -49 79 -49 91 0 10 3
6 33 -49z m452 33 c-16 -18 -16 -20 -1 -26 15 -6 15 -7 -1 -19 -10 -7 -21 -11
-25 -9 -5 3 -8 1 -8 -3 0 -5 -10 -9 -22 -10 -18 -2 -16 2 11 18 45 27 34 34
-14 9 -22 -11 -53 -20 -70 -19 -26 0 -23 2 17 13 26 7 62 24 80 39 39 31 59
35 33 7z m-239 -62 c4 4 4 1 0 -6 -10 -17 -63 20 -63 44 0 13 7 9 28 -14 15
-17 31 -27 35 -24z m413 -9 c-30 -57 -156 -157 -156 -124 0 7 7 11 15 7 9 -3
13 -1 9 5 -4 6 1 10 10 9 10 0 18 5 18 12 0 6 4 12 8 11 12 -1 67 52 64 61 -1
5 2 7 6 7 5 -1 13 6 18 16 14 25 22 21 8 -4z m-331 -10 l37 -1 -34 -10 c-38
-11 -85 -3 -75 13 3 6 13 8 21 5 8 -3 31 -6 51 -7z m-223 -49 c21 -22 37 -40
34 -40 -3 0 -23 18 -44 40 -21 22 -37 40 -34 40 3 0 23 -18 44 -40z m350 30
c-3 -5 -12 -10 -18 -10 -7 0 -6 4 3 10 19 12 23 12 15 0z m-394 -17 c13 -16
12 -17 -3 -4 -17 13 -22 21 -14 21 2 0 10 -8 17 -17z m474 7 c-3 -5 -16 -15
-28 -21 -19 -9 -19 -8 3 10 28 23 34 26 25 11z m-177 -17 c-16 -2 -40 -2 -55
0 -16 2 -3 4 27 4 30 0 43 -2 28 -4z m-65 -50 c-7 -2 -19 -2 -25 0 -7 3 -2 5
12 5 14 0 19 -2 13 -5z m114 1 c-3 -3 -12 -4 -19 -1 -8 3 -5 6 6 6 11 1 17 -2
13 -5z m-54 -11 c-7 -2 -19 -2 -25 0 -7 3 -2 5 12 5 14 0 19 -2 13 -5z m72
-33 c-11 -5 -31 -8 -45 -8 -23 0 -22 1 5 8 42 11 65 11 40 0z"/>
<path d="M9650 5915 c0 -5 -17 -11 -37 -13 -21 -1 -41 -6 -46 -11 -5 -5 -15
-7 -22 -4 -8 2 -23 0 -34 -7 -12 -6 -21 -7 -21 -2 0 15 -58 12 -70 -3 -11 -13
-24 -170 -21 -255 0 -19 1 -253 0 -520 -1 -563 -8 -650 -63 -767 -32 -67 -37
-73 -77 -83 -80 -22 -137 7 -160 81 -17 53 -25 397 -16 684 11 341 14 813 5
845 -7 23 -12 25 -63 25 -30 0 -55 -3 -55 -7 0 -4 -25 -6 -55 -4 -33 3 -55 1
-55 -5 0 -6 -4 -7 -10 -4 -11 7 -13 -4 -11 -45 2 -20 0 -22 -8 -10 -8 12 -11
7 -12 -20 -1 -19 -3 -46 -6 -60 -6 -37 -15 -599 -13 -805 4 -449 8 -599 20
-640 7 -25 10 -50 7 -58 -3 -8 -1 -20 4 -28 7 -12 9 -12 9 1 1 8 7 1 14 -16 8
-18 30 -50 50 -72 20 -22 36 -44 36 -49 0 -15 41 -49 88 -72 23 -12 42 -19 42
-16 0 2 -14 12 -31 20 -17 9 -29 18 -27 20 4 4 219 -52 226 -59 3 -4 -17 -7
-44 -8 -35 -1 -40 -2 -17 -5 85 -11 272 44 308 91 6 7 22 21 38 30 15 10 27
23 27 28 0 6 -8 4 -17 -3 -16 -13 -17 -12 -4 3 7 10 17 16 21 13 12 -8 33 23
27 39 -4 11 -1 13 11 9 13 -5 14 -3 5 7 -14 15 -6 43 10 33 5 -3 7 -2 4 4 -8
12 27 116 36 107 3 -4 9 12 13 34 4 23 10 39 15 36 5 -3 9 5 8 18 0 13 5 75
11 138 6 63 8 144 5 180 -7 89 -15 436 -20 842 -2 209 -7 344 -14 355 -6 10
-11 14 -11 8z m-654 -113 c-12 -11 -18 7 -10 30 l8 23 4 -23 c2 -13 1 -26 -2
-30z m-101 -49 c-10 -53 -19 -31 -10 24 5 26 10 40 13 30 2 -11 1 -35 -3 -54z
m632 35 c-3 -8 -6 -5 -6 6 -1 11 2 17 5 13 3 -3 4 -12 1 -19z m100 -65 c-2
-16 -4 -5 -4 22 0 28 2 40 4 28 2 -13 2 -35 0 -50z m-642 -81 c-11 -88 -17
-52 -8 49 6 69 9 82 11 49 2 -25 1 -69 -3 -98z m72 91 c-3 -10 -5 -4 -5 12 0
17 2 24 5 18 2 -7 2 -21 0 -30z m-230 -65 c-3 -7 -5 -2 -5 12 0 14 2 19 5 13
2 -7 2 -19 0 -25z m100 0 c-3 -7 -5 -2 -5 12 0 14 2 19 5 13 2 -7 2 -19 0 -25z
m480 -60 c-3 -8 -6 -5 -6 6 -1 11 2 17 5 13 3 -3 4 -12 1 -19z m80 -85 c-3
-10 -5 -2 -5 17 0 19 2 27 5 18 2 -10 2 -26 0 -35z m-610 -105 c-2 -13 -4 -5
-4 17 -1 22 1 32 4 23 2 -10 2 -28 0 -40z m790 -40 c-2 -18 -4 -4 -4 32 0 36
2 50 4 33 2 -18 2 -48 0 -65z m-690 60 c-3 -8 -6 -5 -6 6 -1 11 2 17 5 13 3
-3 4 -12 1 -19z m470 -155 c-2 -32 -3 -6 -3 57 0 63 1 89 3 58 2 -32 2 -84 0
-115z m-480 -115 c-1 -40 -3 -10 -3 67 0 77 1 110 3 73 2 -37 2 -100 0 -140z
m660 155 c-3 -10 -5 -2 -5 17 0 19 2 27 5 18 2 -10 2 -26 0 -35z m-720 -130
c-3 -10 -5 -2 -5 17 0 19 2 27 5 18 2 -10 2 -26 0 -35z m60 -518 l0 -120 -8
90 c-4 50 -7 169 -6 265 l1 175 6 -145 c4 -80 7 -199 7 -265z m90 33 c-1 -51
-3 -10 -3 92 0 102 2 143 3 93 2 -51 2 -135 0 -185z m450 65 c-3 -10 -5 -2 -5
17 0 19 2 27 5 18 2 -10 2 -26 0 -35z m-600 -260 c-1 -54 -3 -10 -3 97 0 107
2 151 3 98 2 -54 2 -142 0 -195z m60 -155 c-2 -29 -3 -6 -3 52 0 58 1 81 3 53
2 -29 2 -77 0 -105z m100 0 c-3 -8 -6 -5 -6 6 -1 11 2 17 5 13 3 -3 4 -12 1
-19z m523 -55 c-11 -17 -11 -17 -6 0 3 10 6 24 7 30 0 9 2 9 5 0 3 -7 0 -20
-6 -30z m-656 -53 c4 -24 3 -28 -2 -15 -14 31 -24 83 -13 65 5 -8 11 -31 15
-50z m92 -72 c19 -22 19 -22 0 -8 -22 18 -56 86 -55 115 0 11 8 -4 18 -33 10
-28 27 -62 37 -74z m534 14 c0 -9 -49 -82 -56 -82 -2 0 6 17 20 37 14 20 23
40 20 45 -3 4 0 8 5 8 6 0 11 -3 11 -8z m-425 -72 c13 -6 15 -9 5 -9 -8 0 -22
4 -30 9 -18 12 -2 12 25 0z m68 -17 c-7 -2 -21 -2 -30 0 -10 3 -4 5 12 5 17 0
24 -2 18 -5z"/>
<path d="M3728 5902 c-32 -4 -32 -5 -17 -35 l12 -22 -22 20 c-17 15 -26 17
-39 8 -16 -9 -17 -79 -19 -934 -2 -633 1 -918 8 -906 13 23 25 22 32 -3 3 -11
9 -20 14 -20 4 0 7 374 5 832 -1 496 1 835 7 841 16 16 23 -147 17 -358 -9
-276 -7 -510 5 -640 16 -182 18 -539 3 -567 -16 -28 -19 -82 -4 -58 8 13 10
12 10 -2 0 -10 -4 -18 -10 -18 -5 0 -10 -7 -10 -15 0 -8 4 -15 9 -15 28 0 31
38 34 501 l2 474 0 -503 c0 -435 -2 -504 -15 -513 -11 -8 -7 -9 16 -5 17 3 36
0 43 -7 8 -8 11 -8 11 2 0 9 9 12 25 8 18 -3 30 2 40 17 8 11 15 16 15 11 0
-6 6 -1 12 10 13 21 26 1819 14 1850 -5 13 -10 15 -19 6 -10 -8 -17 -7 -25 1
-9 9 -12 9 -12 0 0 -7 -4 -12 -10 -12 -5 0 -7 6 -4 14 5 13 -33 29 -71 31 -5
0 -14 3 -20 6 -5 2 -22 3 -37 1z m37 -22 c3 -5 -1 -10 -10 -10 -9 0 -13 5 -10
10 3 6 8 10 10 10 2 0 7 -4 10 -10z m-98 -463 c-1 -45 -3 -5 -3 88 0 94 2 130
3 82 2 -48 2 -125 0 -170z m120 186 c-3 -10 -5 -4 -5 12 0 17 2 24 5 18 2 -7
2 -21 0 -30z m-30 -495 c-1 -62 -3 -14 -3 107 0 121 2 172 3 113 2 -59 2 -158
0 -220z m-67 -555 c-1 -288 -3 -383 -12 -369 -7 13 -9 58 -5 135 4 64 7 230 7
369 0 138 2 252 5 252 3 0 5 -174 5 -387z m0 -435 c-1 -26 -3 -30 -10 -16 -6
9 -7 23 -4 32 9 25 14 19 14 -16z m107 -130 c-3 -7 -5 -2 -5 12 0 14 2 19 5
13 2 -7 2 -19 0 -25z"/>
<path d="M7975 5883 c-114 -41 -210 -117 -247 -195 -44 -92 -72 -222 -72 -333
0 -55 0 -136 -1 -180 -2 -445 7 -835 20 -889 36 -139 112 -239 223 -293 65
-31 90 -38 160 -41 152 -8 276 34 366 124 56 56 80 101 109 202 20 73 21 104
25 572 3 517 -4 673 -37 781 -32 101 -106 185 -211 240 -62 32 -258 39 -335
12z m203 -60 c-21 -2 -55 -2 -75 0 -21 2 -4 4 37 4 41 0 58 -2 38 -4z m-125
-10 c-7 -2 -19 -2 -25 0 -7 3 -2 5 12 5 14 0 19 -2 13 -5z m207 -3 c18 -12 2
-12 -25 0 -13 6 -15 9 -5 9 8 0 22 -4 30 -9z m-60 -49 c19 -5 44 -12 54 -17
15 -5 17 -4 11 6 -5 9 -4 11 4 6 6 -4 8 -12 5 -18 -5 -8 -1 -9 12 -4 10 4 15
4 11 0 -8 -9 53 -55 64 -48 4 2 13 -5 19 -17 9 -16 9 -20 1 -14 -12 7 -7 -24
10 -73 22 -59 5 -39 -20 23 -24 64 -32 73 -80 102 -29 17 -72 36 -95 41 -40 8
-134 2 -186 -12 -22 -6 -23 -5 -7 4 37 23 142 34 197 21z m222 -66 c11 -21 8
-18 -32 30 -24 29 -24 29 -2 10 13 -11 28 -29 34 -40z m-187 19 c75 -30 99
-56 120 -128 22 -71 43 -405 26 -415 -9 -6 -11 -95 -9 -365 2 -292 0 -359 -11
-365 -10 -7 -12 -22 -7 -63 6 -44 3 -66 -14 -109 -24 -61 -58 -102 -77 -95 -7
3 -12 0 -10 -6 7 -33 -176 -49 -256 -22 -83 28 -158 131 -156 214 0 15 6 2 15
-30 15 -56 59 -134 72 -126 10 5 73 -30 66 -37 -3 -3 5 -3 18 0 14 3 18 1 11
-4 -6 -4 25 -7 70 -5 158 6 219 62 238 217 6 50 14 91 17 92 4 2 6 114 5 249
-1 290 7 527 18 499 11 -28 11 11 -1 165 -13 173 -53 300 -93 300 -6 0 0 -12
14 -27 l24 -28 -27 24 c-15 13 -25 27 -23 31 2 4 -13 15 -35 25 -82 37 -224 7
-305 -64 l-30 -26 29 33 c35 37 95 69 157 81 70 14 85 12 154 -15z m224 -111
c11 -38 22 -95 24 -128 5 -57 5 -58 -4 -15 -19 89 -41 185 -46 198 -2 6 -2 12
1 12 3 0 14 -30 25 -67z m-569 53 c0 -2 -8 -10 -17 -17 -16 -13 -17 -12 -4 4
13 16 21 21 21 13z m200 -31 c-30 -7 -57 -12 -59 -10 -5 6 61 23 89 23 14 0 0
-6 -30 -13z m161 -36 c13 -26 7 -24 -22 7 -17 19 -19 23 -6 18 10 -3 22 -15
28 -25z m-44 7 c15 -5 24 -17 27 -39 19 -134 24 -240 22 -422 -1 -115 1 -187
5 -160 4 33 5 20 3 -39 -2 -49 -5 -135 -6 -190 l-2 -101 -6 100 c-6 97 -6 95
-8 -55 -3 -177 -24 -362 -46 -395 -11 -16 -33 -27 -68 -35 -109 -24 -161 17
-174 138 -4 37 -4 222 -1 411 3 209 2 379 -4 435 -18 161 19 324 80 349 31 13
140 15 178 3z m83 -198 c8 -81 9 -570 1 -953 -1 -31 -3 -37 -11 -25 -8 11 -9
-2 -4 -49 4 -46 3 -62 -5 -57 -6 4 -11 3 -11 -3 0 -18 19 -21 24 -4 3 10 10
55 15 101 12 111 25 120 17 12 -8 -116 -19 -150 -63 -192 -47 -46 -79 -58
-151 -58 -108 1 -197 65 -222 159 -12 46 -14 375 -3 506 l8 100 5 -83 c5 -80
18 -106 32 -60 3 13 6 -68 7 -178 1 -225 11 -297 44 -332 39 -43 74 -54 148
-50 78 4 112 27 129 87 24 82 37 1132 15 1196 -6 17 -5 18 4 3 6 -9 16 -63 21
-120z m-473 60 c-3 -8 -6 -5 -6 6 -1 11 2 17 5 13 3 -3 4 -12 1 -19z m-10 -50
c-3 -8 -6 -5 -6 6 -1 11 2 17 5 13 3 -3 4 -12 1 -19z m600 -150 c-2 -13 -4 -3
-4 22 0 25 2 35 4 23 2 -13 2 -33 0 -45z m0 -275 c-2 -27 -3 -5 -3 47 0 52 1
74 3 48 2 -27 2 -69 0 -95z m-550 40 c-3 -10 -5 -4 -5 12 0 17 2 24 5 18 2 -7
2 -21 0 -30z m80 -30 c-3 -10 -5 -4 -5 12 0 17 2 24 5 18 2 -7 2 -21 0 -30z
m-190 -145 c-3 -7 -5 -2 -5 12 0 14 2 19 5 13 2 -7 2 -19 0 -25z m95 -213 c-6
-126 -9 -153 -10 -89 -2 95 10 324 15 289 2 -11 -1 -101 -5 -200z m-95 78 c-3
-10 -5 -2 -5 17 0 19 2 27 5 18 2 -10 2 -26 0 -35z m720 -90 c-2 -21 -4 -4 -4
37 0 41 2 58 4 38 2 -21 2 -55 0 -75z m20 10 c-2 -16 -4 -5 -4 22 0 28 2 40 4
28 2 -13 2 -35 0 -50z m-73 -83 c5 -60 4 -81 -4 -70 -7 11 -9 3 -8 -33 1 -26
-2 -50 -7 -55 -4 -4 -5 31 -1 78 3 47 6 105 6 129 0 68 7 45 14 -49z m-557
-27 c-2 -16 -4 -5 -4 22 0 28 2 40 4 28 2 -13 2 -35 0 -50z m600 -115 c-2 -13
-4 -5 -4 17 -1 22 1 32 4 23 2 -10 2 -28 0 -40z m-700 -45 c-2 -16 -4 -5 -4
22 0 28 2 40 4 28 2 -13 2 -35 0 -50z m720 5 c-3 -8 -6 -5 -6 6 -1 11 2 17 5
13 3 -3 4 -12 1 -19z m-690 -30 c-3 -7 -5 -2 -5 12 0 14 2 19 5 13 2 -7 2 -19
0 -25z m604 -65 c-29 -106 -126 -173 -261 -181 -74 -4 -157 12 -200 38 -32 20
-1 17 50 -3 49 -20 66 -22 151 -16 124 8 170 31 217 109 20 34 32 67 32 90 0
20 3 40 8 44 12 13 14 -40 3 -81z m56 40 c-3 -10 -5 -2 -5 17 0 19 2 27 5 18
2 -10 2 -26 0 -35z m-661 -71 c-5 -5 -26 59 -25 77 0 9 7 -4 14 -29 8 -24 13
-46 11 -48z m663 5 c1 -5 -4 -5 -10 -1 -7 4 -9 0 -5 -13 3 -10 0 -27 -7 -37
-12 -16 -13 -16 -11 6 0 12 5 39 9 58 7 29 9 31 16 15 4 -11 8 -24 8 -28z
m-624 -63 c9 -15 12 -23 6 -20 -11 7 -35 46 -28 46 3 0 12 -12 22 -26z m566
-43 c-22 -30 -106 -91 -125 -91 -6 1 2 8 17 16 15 8 25 19 22 24 -4 6 1 7 11
3 11 -4 15 -2 11 4 -3 5 7 23 23 38 17 16 30 25 30 20 0 -5 5 -4 12 3 21 21
20 13 -1 -17z m-441 -61 c8 -5 11 -10 5 -10 -5 0 -17 5 -25 10 -8 5 -10 10 -5
10 6 0 17 -5 25 -10z m297 -16 c-3 -3 -12 -4 -19 -1 -8 3 -5 6 6 6 11 1 17 -2
13 -5z m-214 -11 c-7 -2 -19 -2 -25 0 -7 3 -2 5 12 5 14 0 19 -2 13 -5z m170
0 c-7 -2 -21 -2 -30 0 -10 3 -4 5 12 5 17 0 24 -2 18 -5z m-70 -10 c-13 -2
-35 -2 -50 0 -16 2 -5 4 22 4 28 0 40 -2 28 -4z"/>
<path d="M7912 4710 c0 -14 2 -19 5 -12 2 6 2 18 0 25 -3 6 -5 1 -5 -13z"/>
<path d="M7921 4344 c0 -11 3 -14 6 -6 3 7 2 16 -1 19 -3 4 -6 -2 -5 -13z"/>
<path d="M7921 4300 c14 -31 19 -36 19 -24 0 6 -7 19 -16 30 -14 18 -14 18 -3
-6z"/>
<path d="M8210 4243 c-19 -14 -26 -23 -15 -18 11 4 26 8 34 9 8 2 15 10 17 19
1 9 2 17 1 16 -1 0 -18 -12 -37 -26z"/>
<path d="M8349 4123 l-24 -28 28 24 c15 14 27 26 27 28 0 8 -8 1 -31 -24z"/>
<path d="M12595 5883 c-114 -41 -210 -117 -247 -195 -44 -92 -72 -222 -72
-333 0 -55 0 -136 -1 -180 -2 -445 7 -835 20 -889 36 -139 112 -239 223 -293
65 -31 90 -38 160 -41 152 -8 276 34 366 124 56 56 80 101 109 202 20 73 21
104 25 572 3 517 -4 673 -37 781 -32 101 -106 185 -211 240 -62 32 -258 39
-335 12z m203 -60 c-21 -2 -55 -2 -75 0 -21 2 -4 4 37 4 41 0 58 -2 38 -4z
m-125 -10 c-7 -2 -19 -2 -25 0 -7 3 -2 5 12 5 14 0 19 -2 13 -5z m207 -3 c18
-12 2 -12 -25 0 -13 6 -15 9 -5 9 8 0 22 -4 30 -9z m-60 -49 c19 -5 44 -12 54
-17 15 -5 17 -4 11 6 -5 9 -4 11 4 6 6 -4 8 -12 5 -18 -5 -8 -1 -9 12 -4 10 4
15 4 11 0 -8 -9 53 -55 64 -48 4 2 13 -5 19 -17 9 -16 9 -20 1 -14 -12 7 -7
-24 10 -73 22 -59 5 -39 -20 23 -24 64 -32 73 -80 102 -29 17 -72 36 -95 41
-40 8 -134 2 -186 -12 -22 -6 -23 -5 -7 4 37 23 142 34 197 21z m222 -66 c11
-21 8 -18 -32 30 -24 29 -24 29 -2 10 13 -11 28 -29 34 -40z m-187 19 c75 -30
99 -56 120 -128 22 -71 43 -405 26 -415 -9 -6 -11 -95 -9 -365 2 -292 0 -359
-11 -365 -10 -7 -12 -22 -7 -63 6 -44 3 -66 -14 -109 -24 -61 -58 -102 -77
-95 -7 3 -12 0 -10 -6 7 -33 -176 -49 -256 -22 -83 28 -158 131 -156 214 0 15
6 2 15 -30 15 -56 59 -134 72 -126 10 5 73 -30 66 -37 -3 -3 5 -3 18 0 14 3
18 1 11 -4 -6 -4 25 -7 70 -5 158 6 219 62 238 217 6 50 14 91 17 92 4 2 6
114 5 249 -1 290 7 527 18 499 11 -28 11 11 -1 165 -13 173 -53 300 -93 300
-6 0 0 -12 14 -27 l24 -28 -27 24 c-15 13 -25 27 -23 31 2 4 -13 15 -35 25
-82 37 -224 7 -305 -64 l-30 -26 29 33 c35 37 95 69 157 81 70 14 85 12 154
-15z m224 -111 c10 -38 21 -95 24 -128 5 -57 4 -58 -4 -15 -19 89 -41 185 -46
198 -2 6 -2 12 1 12 3 0 14 -30 25 -67z m-569 53 c0 -2 -8 -10 -17 -17 -16
-13 -17 -12 -4 4 13 16 21 21 21 13z m200 -31 c-30 -7 -57 -12 -59 -10 -5 6
61 23 89 23 14 0 0 -6 -30 -13z m161 -36 c13 -26 7 -24 -22 7 -17 19 -19 23
-6 18 10 -3 22 -15 28 -25z m-44 7 c15 -5 24 -17 27 -39 19 -134 24 -240 22
-422 -1 -115 1 -187 5 -160 4 33 5 20 3 -39 -2 -49 -5 -135 -6 -190 l-2 -101
-6 100 c-6 97 -6 95 -8 -55 -3 -177 -24 -362 -46 -395 -11 -16 -33 -27 -68
-35 -109 -24 -161 17 -174 138 -4 37 -4 222 -1 411 3 209 2 379 -4 435 -18
161 19 324 80 349 31 13 140 15 178 3z m-380 -88 c-3 -8 -6 -5 -6 6 -1 11 2
17 5 13 3 -3 4 -12 1 -19z m463 -110 c8 -81 9 -570 1 -953 -1 -31 -3 -37 -11
-25 -8 11 -9 -2 -4 -49 4 -46 3 -62 -5 -57 -6 4 -11 3 -11 -3 0 -18 19 -21 24
-4 3 10 10 55 15 101 12 111 25 120 17 12 -8 -116 -19 -150 -63 -192 -47 -46
-79 -58 -151 -58 -108 1 -197 65 -222 159 -12 46 -14 375 -3 506 l8 100 5 -83
c5 -80 18 -106 32 -60 3 13 6 -68 7 -178 1 -225 11 -297 44 -332 39 -43 74
-54 148 -50 78 4 112 27 129 87 24 82 37 1132 15 1196 -6 17 -5 18 4 3 6 -9
16 -63 21 -120z m-473 60 c-3 -8 -6 -5 -6 6 -1 11 2 17 5 13 3 -3 4 -12 1 -19z
m-10 -50 c-3 -8 -6 -5 -6 6 -1 11 2 17 5 13 3 -3 4 -12 1 -19z m600 -150 c-2
-13 -4 -3 -4 22 0 25 2 35 4 23 2 -13 2 -33 0 -45z m0 -275 c-2 -27 -3 -5 -3
47 0 52 1 74 3 48 2 -27 2 -69 0 -95z m-550 40 c-3 -10 -5 -4 -5 12 0 17 2 24
5 18 2 -7 2 -21 0 -30z m80 -30 c-3 -10 -5 -4 -5 12 0 17 2 24 5 18 2 -7 2
-21 0 -30z m-190 -145 c-3 -7 -5 -2 -5 12 0 14 2 19 5 13 2 -7 2 -19 0 -25z
m95 -213 c-6 -126 -9 -153 -10 -89 -2 95 10 324 15 289 2 -11 -1 -101 -5 -200z
m-95 78 c-3 -10 -5 -2 -5 17 0 19 2 27 5 18 2 -10 2 -26 0 -35z m720 -90 c-2
-21 -4 -4 -4 37 0 41 2 58 4 38 2 -21 2 -55 0 -75z m20 10 c-2 -16 -4 -5 -4
22 0 28 2 40 4 28 2 -13 2 -35 0 -50z m-73 -83 c5 -60 4 -81 -4 -70 -7 11 -9
3 -8 -33 1 -26 -2 -50 -7 -55 -4 -4 -5 31 -1 78 3 47 6 105 6 129 0 68 7 45
14 -49z m-557 -27 c-2 -16 -4 -5 -4 22 0 28 2 40 4 28 2 -13 2 -35 0 -50z
m600 -115 c-2 -13 -4 -5 -4 17 -1 22 1 32 4 23 2 -10 2 -28 0 -40z m-700 -50
c-2 -13 -4 -3 -4 22 0 25 2 35 4 23 2 -13 2 -33 0 -45z m720 10 c-3 -8 -6 -5
-6 6 -1 11 2 17 5 13 3 -3 4 -12 1 -19z m-690 -30 c-3 -7 -5 -2 -5 12 0 14 2
19 5 13 2 -7 2 -19 0 -25z m604 -65 c-29 -106 -126 -173 -261 -181 -74 -4
-157 12 -200 38 -32 20 -1 17 50 -3 49 -20 66 -22 151 -16 124 8 170 31 217
109 20 34 32 67 32 90 0 20 3 40 8 44 12 13 14 -40 3 -81z m56 40 c-3 -10 -5
-2 -5 17 0 19 2 27 5 18 2 -10 2 -26 0 -35z m-661 -71 c-5 -5 -26 59 -25 77 0
9 7 -4 14 -29 8 -24 13 -46 11 -48z m663 5 c1 -5 -4 -5 -10 -1 -7 4 -9 0 -5
-13 3 -10 0 -27 -7 -37 -12 -16 -13 -16 -11 6 0 12 5 39 9 58 7 29 9 31 16 15
4 -11 8 -24 8 -28z m-624 -63 c9 -15 12 -23 6 -20 -11 7 -35 46 -28 46 3 0 12
-12 22 -26z m566 -43 c-22 -30 -106 -91 -125 -91 -6 1 2 8 17 16 15 8 25 19
22 24 -4 6 1 7 11 3 11 -4 15 -2 11 4 -3 5 7 23 23 38 17 16 30 25 30 20 0 -5
5 -4 12 3 21 21 20 13 -1 -17z m-441 -61 c8 -5 11 -10 5 -10 -5 0 -17 5 -25
10 -8 5 -10 10 -5 10 6 0 17 -5 25 -10z m297 -16 c-3 -3 -12 -4 -19 -1 -8 3
-5 6 6 6 11 1 17 -2 13 -5z m-214 -11 c-7 -2 -19 -2 -25 0 -7 3 -2 5 12 5 14
0 19 -2 13 -5z m170 0 c-7 -2 -21 -2 -30 0 -10 3 -4 5 12 5 17 0 24 -2 18 -5z
m-70 -10 c-13 -2 -35 -2 -50 0 -16 2 -5 4 22 4 28 0 40 -2 28 -4z"/>
<path d="M12532 4710 c0 -19 2 -27 5 -17 2 9 2 25 0 35 -3 9 -5 1 -5 -18z"/>
<path d="M12541 4344 c0 -11 3 -14 6 -6 3 7 2 16 -1 19 -3 4 -6 -2 -5 -13z"/>
<path d="M12541 4300 c14 -31 19 -36 19 -24 0 6 -7 19 -16 30 -14 18 -14 18
-3 -6z"/>
<path d="M12830 4243 c-19 -14 -26 -23 -15 -18 11 4 26 8 34 9 8 2 15 10 17
19 1 9 2 17 1 16 -1 0 -18 -12 -37 -26z"/>
<path d="M12969 4123 l-24 -28 28 24 c15 14 27 26 27 28 0 8 -8 1 -31 -24z"/>
<path d="M13735 5883 c-114 -41 -212 -118 -248 -196 -43 -91 -71 -221 -71
-332 0 -55 0 -136 -1 -180 -2 -445 7 -835 20 -889 36 -139 112 -239 223 -293
65 -31 90 -38 160 -41 152 -8 276 34 366 124 56 56 80 101 109 202 20 73 21
104 25 572 3 517 -4 673 -37 781 -32 101 -106 185 -211 240 -62 32 -258 39
-335 12z m203 -60 c-21 -2 -55 -2 -75 0 -21 2 -4 4 37 4 41 0 58 -2 38 -4z
m-125 -10 c-7 -2 -19 -2 -25 0 -7 3 -2 5 12 5 14 0 19 -2 13 -5z m207 -3 c18
-12 2 -12 -25 0 -13 6 -15 9 -5 9 8 0 22 -4 30 -9z m-60 -49 c19 -5 44 -12 54
-17 15 -5 17 -4 11 6 -5 9 -4 11 4 6 6 -4 8 -12 5 -18 -5 -8 -1 -9 12 -4 10 4
15 4 11 0 -8 -9 53 -55 64 -48 4 2 13 -5 19 -17 9 -16 9 -20 1 -14 -12 7 -7
-24 10 -73 22 -59 5 -39 -20 23 -24 64 -32 73 -80 102 -29 17 -72 36 -95 41
-40 8 -134 2 -186 -12 -22 -6 -23 -5 -7 4 37 23 142 34 197 21z m222 -66 c11
-21 8 -18 -32 30 -24 29 -24 29 -2 10 13 -11 28 -29 34 -40z m-187 19 c75 -30
99 -56 120 -128 22 -71 43 -405 26 -415 -9 -6 -11 -95 -9 -365 2 -292 0 -359
-11 -365 -10 -7 -12 -22 -7 -63 6 -44 3 -66 -14 -109 -24 -61 -58 -102 -77
-95 -7 3 -12 0 -10 -6 7 -33 -176 -49 -256 -22 -83 28 -158 131 -156 214 0 15
6 2 15 -30 15 -56 59 -134 72 -126 10 5 73 -30 66 -37 -3 -3 5 -3 18 0 14 3
18 1 11 -4 -20 -14 139 -3 184 13 23 8 56 31 72 50 34 38 46 77 56 177 4 37
10 67 13 67 4 0 6 111 5 246 -1 290 7 527 18 499 11 -28 11 11 -1 165 -13 173
-53 300 -93 300 -6 0 0 -12 14 -27 l24 -28 -27 24 c-15 13 -25 27 -23 31 2 4
-13 15 -35 25 -82 37 -224 7 -305 -64 l-30 -26 29 33 c35 37 95 69 157 81 70
14 85 12 154 -15z m224 -111 c11 -38 22 -95 24 -128 5 -57 5 -58 -4 -15 -19
89 -41 185 -46 198 -2 6 -2 12 1 12 3 0 14 -30 25 -67z m-569 53 c0 -2 -8 -10
-17 -17 -16 -13 -17 -12 -4 4 13 16 21 21 21 13z m200 -31 c-30 -7 -57 -12
-59 -10 -5 6 61 23 89 23 14 0 0 -6 -30 -13z m161 -36 c13 -26 7 -24 -22 7
-17 19 -19 23 -6 18 10 -3 22 -15 28 -25z m-44 7 c15 -5 24 -17 27 -39 19
-134 24 -240 22 -422 -1 -115 1 -187 5 -160 4 33 5 20 3 -39 -2 -49 -5 -135
-6 -190 l-2 -101 -6 100 c-6 97 -6 95 -8 -55 -3 -177 -24 -362 -46 -395 -11
-16 -33 -27 -68 -35 -109 -24 -161 17 -174 138 -4 37 -4 222 -1 411 3 209 2
379 -4 435 -18 161 19 324 80 349 31 13 140 15 178 3z m83 -198 c8 -81 9 -570
1 -953 -1 -31 -3 -37 -11 -25 -8 11 -9 -2 -4 -49 4 -46 3 -62 -5 -57 -6 4 -11
3 -11 -3 0 -18 19 -21 24 -4 3 10 10 55 15 101 12 111 25 120 17 12 -8 -116
-19 -150 -63 -192 -47 -46 -79 -58 -151 -58 -108 1 -197 65 -222 159 -12 46
-14 375 -3 506 l8 100 5 -83 c5 -80 18 -106 32 -60 3 13 6 -68 7 -178 1 -225
11 -297 44 -332 39 -43 74 -54 148 -50 78 4 112 27 129 87 24 82 37 1132 15
1196 -6 17 -5 18 4 3 6 -9 16 -63 21 -120z m-473 60 c-3 -8 -6 -5 -6 6 -1 11
2 17 5 13 3 -3 4 -12 1 -19z m-10 -50 c-3 -8 -6 -5 -6 6 -1 11 2 17 5 13 3 -3
4 -12 1 -19z m600 -150 c-2 -13 -4 -3 -4 22 0 25 2 35 4 23 2 -13 2 -33 0 -45z
m0 -275 c-2 -27 -3 -5 -3 47 0 52 1 74 3 48 2 -27 2 -69 0 -95z m-550 40 c-3
-10 -5 -4 -5 12 0 17 2 24 5 18 2 -7 2 -21 0 -30z m80 -30 c-3 -10 -5 -4 -5
12 0 17 2 24 5 18 2 -7 2 -21 0 -30z m-190 -145 c-3 -7 -5 -2 -5 12 0 14 2 19
5 13 2 -7 2 -19 0 -25z m95 -213 c-6 -126 -9 -153 -10 -89 -2 95 10 324 15
289 2 -11 -1 -101 -5 -200z m-95 78 c-3 -10 -5 -2 -5 17 0 19 2 27 5 18 2 -10
2 -26 0 -35z m720 -90 c-2 -21 -4 -4 -4 37 0 41 2 58 4 38 2 -21 2 -55 0 -75z
m20 10 c-2 -16 -4 -5 -4 22 0 28 2 40 4 28 2 -13 2 -35 0 -50z m-73 -83 c5
-60 4 -81 -4 -70 -7 11 -9 3 -8 -33 1 -26 -2 -50 -7 -55 -4 -4 -5 31 -1 78 3
47 6 105 6 129 0 68 7 45 14 -49z m-557 -27 c-2 -16 -4 -5 -4 22 0 28 2 40 4
28 2 -13 2 -35 0 -50z m600 -115 c-2 -13 -4 -5 -4 17 -1 22 1 32 4 23 2 -10 2
-28 0 -40z m-700 -45 c-2 -16 -4 -5 -4 22 0 28 2 40 4 28 2 -13 2 -35 0 -50z
m720 5 c-3 -8 -6 -5 -6 6 -1 11 2 17 5 13 3 -3 4 -12 1 -19z m-690 -30 c-3 -7
-5 -2 -5 12 0 14 2 19 5 13 2 -7 2 -19 0 -25z m604 -65 c-29 -106 -126 -173
-261 -181 -74 -4 -157 12 -200 38 -32 20 -1 17 50 -3 49 -20 66 -22 151 -16
124 8 170 31 217 109 20 34 32 67 32 90 0 20 3 40 8 44 12 13 14 -40 3 -81z
m56 40 c-3 -10 -5 -2 -5 17 0 19 2 27 5 18 2 -10 2 -26 0 -35z m-661 -71 c-5
-5 -26 59 -25 77 0 9 7 -4 14 -29 8 -24 13 -46 11 -48z m663 5 c1 -5 -4 -5
-10 -1 -7 4 -9 0 -5 -13 3 -10 0 -27 -7 -37 -12 -16 -13 -16 -11 6 0 12 5 39
9 58 7 29 9 31 16 15 4 -11 8 -24 8 -28z m-624 -63 c9 -15 12 -23 6 -20 -11 7
-35 46 -28 46 3 0 12 -12 22 -26z m566 -43 c-22 -30 -106 -91 -125 -91 -6 1 2
8 17 16 15 8 25 19 22 24 -4 6 1 7 11 3 11 -4 15 -2 11 4 -3 5 7 23 23 38 17
16 30 25 30 20 0 -5 5 -4 12 3 21 21 20 13 -1 -17z m-441 -61 c8 -5 11 -10 5
-10 -5 0 -17 5 -25 10 -8 5 -10 10 -5 10 6 0 17 -5 25 -10z m297 -16 c-3 -3
-12 -4 -19 -1 -8 3 -5 6 6 6 11 1 17 -2 13 -5z m-214 -11 c-7 -2 -19 -2 -25 0
-7 3 -2 5 12 5 14 0 19 -2 13 -5z m170 0 c-7 -2 -21 -2 -30 0 -10 3 -4 5 12 5
17 0 24 -2 18 -5z m-70 -10 c-13 -2 -35 -2 -50 0 -16 2 -5 4 22 4 28 0 40 -2
28 -4z"/>
<path d="M13672 4710 c0 -14 2 -19 5 -12 2 6 2 18 0 25 -3 6 -5 1 -5 -13z"/>
<path d="M13681 4344 c0 -11 3 -14 6 -6 3 7 2 16 -1 19 -3 4 -6 -2 -5 -13z"/>
<path d="M13681 4300 c14 -31 19 -36 19 -24 0 6 -7 19 -16 30 -14 18 -14 18
-3 -6z"/>
<path d="M13970 4243 c-19 -14 -26 -23 -15 -18 11 4 26 8 34 9 8 2 15 10 17
19 1 9 2 17 1 16 -1 0 -18 -12 -37 -26z"/>
<path d="M14109 4123 l-24 -28 28 24 c15 14 27 26 27 28 0 8 -8 1 -31 -24z"/>
<path d="M1403 5879 c-22 -8 -23 -14 -25 -136 -5 -373 15 -1729 27 -1756 4
-11 17 -17 34 -16 14 1 44 -3 66 -9 60 -17 155 -9 171 13 11 15 13 114 7 549
-3 292 -3 529 0 526 3 -3 69 -176 147 -385 77 -209 152 -409 166 -445 15 -36
40 -103 56 -150 16 -47 33 -89 38 -93 4 -5 36 -9 71 -9 35 0 73 -4 86 -9 14
-5 23 -5 23 1 0 6 11 10 23 10 l24 0 7 228 c8 300 6 1437 -3 1532 -5 41 -9 68
-10 59 0 -9 -8 -20 -17 -23 -24 -9 -26 -8 -14 13 13 25 13 41 0 21 -8 -13 -10
-12 -10 3 0 9 -5 17 -10 17 -8 0 -9 -135 -6 -427 16 -1241 16 -1260 1 -1218
-7 22 -13 54 -13 70 l0 30 8 -30 c14 -56 10 114 -5 220 -8 55 -14 109 -14 120
l0 20 10 -20 c8 -19 6 111 -8 465 -2 69 -7 204 -10 300 -8 252 -21 174 -24
-150 l-3 -275 -9 435 c-9 430 -6 508 22 502 7 -1 10 2 6 7 -3 6 -27 9 -53 7
-26 -1 -57 1 -68 5 -25 9 -44 -6 -44 -35 0 -16 -3 -17 -9 -8 -6 11 -9 9 -13
-5 -3 -11 -2 -244 2 -519 4 -274 6 -500 5 -502 -2 -2 -10 16 -19 40 -34 94
-182 515 -255 728 -85 246 -94 268 -125 290 -24 17 -196 24 -233 9z m874 -211
c-2 -13 -4 -5 -4 17 -1 22 1 32 4 23 2 -10 2 -28 0 -40z m-553 -187 c9 -35 28
-87 42 -115 29 -57 31 -61 148 -386 46 -129 94 -259 105 -288 12 -29 21 -74
20 -100 l0 -47 -33 90 c-18 50 -68 182 -110 295 -107 284 -127 340 -135 380
-5 19 -25 76 -45 125 -20 50 -39 110 -41 135 l-4 45 18 -35 c10 -19 26 -64 35
-99z m565 16 c0 -56 -4 -122 -8 -147 -6 -33 -9 -3 -10 108 -1 100 2 151 9 147
6 -4 10 -50 9 -108z m-779 -47 c-1 -36 -5 -94 -9 -130 -7 -53 -8 -37 -9 90 -1
115 2 149 10 130 5 -14 9 -54 8 -90z m647 -132 c-2 -13 -4 -5 -4 17 -1 22 1
32 4 23 2 -10 2 -28 0 -40z m-638 -100 c3 13 4 -47 2 -133 -2 -112 0 -164 10
-187 10 -24 10 -33 1 -36 -8 -2 -12 -39 -13 -120 0 -75 -4 -110 -9 -97 -5 11
-8 151 -8 310 0 160 3 279 6 265 l5 -25 6 23z m98 -25 c-3 -10 -5 -4 -5 12 0
17 2 24 5 18 2 -7 2 -21 0 -30z m-69 -145 c-3 -52 -3 -52 -12 24 -4 43 -4 90
0 105 8 25 9 22 12 -24 2 -29 2 -77 0 -105z m69 -215 c-2 -27 -3 -5 -3 47 0
52 1 74 3 48 2 -27 2 -69 0 -95z m-40 -176 c-1 -45 -3 -5 -3 88 0 94 2 130 3
82 2 -48 2 -125 0 -170z m630 -24 c-1 -49 -3 -9 -3 87 0 96 2 136 3 88 2 -49
2 -127 0 -175z m90 -65 c-2 -18 -4 -6 -4 27 0 33 2 48 4 33 2 -15 2 -42 0 -60z
m-776 -184 l-9 -219 1 228 c0 125 4 224 9 219 4 -4 4 -107 -1 -228z m696 49
c-2 -16 -4 -3 -4 27 0 30 2 43 4 28 2 -16 2 -40 0 -55z m80 -160 c-2 -27 -3
-5 -3 47 0 52 1 74 3 48 2 -27 2 -69 0 -95z"/>
<path d="M1820 5185 c0 -5 5 -17 10 -25 5 -8 10 -10 10 -5 0 6 -5 17 -10 25
-5 8 -10 11 -10 5z"/>
<path d="M2618 5872 l-28 -17 0 -932 c0 -913 0 -933 19 -933 11 0 21 -5 23
-12 3 -9 99 -12 375 -12 l371 -1 12 37 c7 26 8 44 1 57 -6 11 -8 52 -4 101 5
65 3 84 -8 91 -8 5 -120 9 -250 9 -207 0 -238 2 -243 16 -3 9 -6 130 -6 269
l0 254 46 7 c25 3 94 3 154 -1 117 -7 143 0 147 40 2 11 7 47 12 80 7 47 6 65
-5 83 -8 12 -10 22 -5 22 6 0 8 7 5 15 -5 12 -36 15 -178 17 l-171 2 168 3
c113 3 167 7 167 14 0 8 -50 10 -167 8 l-168 -4 -3 245 c-2 198 0 247 11 255
9 6 106 10 245 9 127 0 237 3 244 7 14 9 15 229 0 255 -9 16 -37 18 -358 20
-192 1 -356 4 -364 7 -8 4 -27 -1 -42 -11z m325 -69 c-13 -2 -33 -2 -45 0 -13
2 -3 4 22 4 25 0 35 -2 23 -4z m190 -40 c-24 -2 -62 -2 -85 0 -24 2 -5 4 42 4
47 0 66 -2 43 -4z m-185 -10 c-10 -2 -28 -2 -40 0 -13 2 -5 4 17 4 22 1 32 -1
23 -4z m167 -52 c-22 -4 -67 -4 -100 0 -51 5 -46 6 40 6 65 0 86 -2 60 -6z
m-178 -57 c-3 -3 -12 -4 -19 -1 -8 3 -5 6 6 6 11 1 17 -2 13 -5z m361 -21
c-15 -2 -42 -2 -60 0 -18 2 -6 4 27 4 33 0 48 -2 33 -4z m-165 -10 c-35 -2
-91 -2 -125 0 -35 2 -7 3 62 3 69 0 97 -1 63 -3z m-335 -140 c2 82 17 131 33
106 4 -8 4 -16 -3 -20 -7 -4 -10 -86 -10 -237 0 -187 -2 -232 -14 -236 -7 -3
-15 -2 -18 2 -5 8 -9 479 -5 497 2 6 6 -35 9 -90 l6 -100 2 78z m-138 -147 c0
-126 -2 -227 -4 -225 -2 2 -6 112 -9 244 -4 153 -3 235 3 225 5 -8 10 -117 10
-244z m28 9 c0 -104 -4 -203 -8 -220 -4 -16 -8 83 -8 220 0 138 4 237 8 220 4
-16 8 -115 8 -220z m19 -22 c-2 -37 -3 -9 -3 62 0 72 1 102 3 68 2 -34 2 -93
0 -130z m130 0 c-2 -37 -3 -9 -3 62 0 72 1 102 3 68 2 -34 2 -93 0 -130z
m-110 0 c-3 -10 -5 -4 -5 12 0 17 2 24 5 18 2 -7 2 -21 0 -30z m120 -180 c-2
-21 -4 -6 -4 32 0 39 2 55 4 38 2 -18 2 -50 0 -70z m189 -174 c-43 -5 -95 -4
-115 0 -27 7 -6 9 79 9 l115 -1 -79 -8z m129 -39 c-11 -5 -78 -8 -150 -8 -97
1 -114 3 -65 7 113 10 237 11 215 1z m-137 -87 c-27 -2 -69 -2 -95 0 -27 2 -5
3 47 3 52 0 74 -1 48 -3z m-368 -76 c0 -77 -13 -197 -20 -192 -9 6 -13 211 -5
225 14 22 25 7 25 -33z m17 -90 c-2 -23 -3 -1 -3 48 0 50 1 68 3 42 2 -26 2
-67 0 -90z m122 64 c-2 -58 -3 -61 -9 -26 -6 39 -6 39 -12 10 -3 -21 -5 -13
-7 26 -1 43 2 56 14 56 12 0 15 -14 14 -66z m-172 -333 c-2 -24 -4 -7 -4 37 0
44 2 63 4 43 2 -21 2 -57 0 -80z m511 -315 c-42 -2 -114 -2 -160 0 -46 1 -11
3 77 3 88 0 125 -2 83 -3z"/>
<path d="M6665 5880 l-120 -5 0 -938 c0 -820 2 -939 15 -947 27 -17 316 -16
459 1 46 5 98 8 115 5 17 -3 25 -3 17 0 -7 4 9 14 40 24 29 10 58 16 63 13 5
-4 6 -1 1 7 -6 10 -4 12 8 7 10 -4 16 -2 14 5 -1 6 4 13 12 16 9 3 11 0 6 -9
-4 -8 13 6 38 30 25 24 44 48 41 52 -3 5 4 25 15 46 11 21 20 34 21 30 0 -4
-7 -21 -15 -37 -9 -17 -13 -30 -11 -30 13 0 36 63 30 82 -4 14 -3 18 5 13 8
-5 10 1 5 21 -5 20 -4 25 6 19 9 -5 10 -2 6 11 -3 11 -2 45 3 77 9 67 3 159
-10 151 -5 -3 -9 -35 -9 -72 0 -87 -23 -193 -56 -260 -19 -39 -42 -65 -85 -97
-77 -57 -129 -73 -274 -85 -155 -13 -152 -13 -152 6 0 14 12 15 81 11 56 -4
70 -3 46 3 -25 6 -13 7 45 5 47 -3 70 -1 55 3 -22 7 -19 9 24 15 26 4 53 4 59
0 5 -3 7 -2 4 3 -3 5 19 22 49 38 72 38 107 80 134 163 13 37 28 71 34 75 14
9 10 299 -4 343 -6 17 -11 50 -13 73 -1 23 -6 42 -11 42 -5 0 -6 3 -3 7 4 3
-2 12 -13 20 -12 8 -17 20 -13 30 4 10 2 14 -4 10 -5 -3 -22 7 -37 22 -44 46
-11 50 37 5 23 -22 36 -32 30 -24 -7 7 -13 20 -13 28 0 12 3 12 18 1 9 -8 2 3
-15 24 -37 43 -39 49 -17 68 43 36 66 122 80 303 5 66 4 87 -5 82 -7 -4 -11
-38 -11 -89 0 -132 -41 -282 -77 -282 -6 0 -15 -4 -20 -9 -5 -5 -3 -6 5 -2 6
4 12 2 12 -3 0 -14 -6 -14 -30 -1 -18 10 -17 12 7 56 38 68 53 144 53 277 0
144 -23 296 -55 359 -13 27 -22 48 -20 48 8 0 47 -73 65 -122 17 -49 19 -50
19 -20 1 17 5 32 10 32 25 0 -46 145 -91 187 -50 47 -131 74 -255 83 -122 10
-144 10 -348 0z m323 -127 c-10 -2 -26 -2 -35 0 -10 3 -2 5 17 5 19 0 27 -2
18 -5z m-8 -138 c105 -12 126 -44 135 -206 13 -229 -16 -292 -153 -323 -39 -9
-82 -16 -95 -16 l-24 0 -5 268 c-3 167 -2 272 5 279 5 8 24 11 46 8 20 -2 61
-7 91 -10z m-239 -280 l-8 -260 -1 275 c-1 158 2 269 7 260 5 -8 6 -132 2
-275z m-33 8 c-1 -239 -2 -253 -9 -133 -11 211 -10 400 1 400 6 0 9 -95 8
-267z m109 145 c-2 -24 -4 -5 -4 42 0 47 2 66 4 43 2 -24 2 -62 0 -85z m480
70 c-3 -7 -5 -2 -5 12 0 14 2 19 5 13 2 -7 2 -19 0 -25z m-32 -135 c-10 -92
-16 -72 -8 23 4 43 9 70 11 60 2 -10 1 -48 -3 -83z m59 -93 c-1 -118 -5 -165
-17 -195 l-16 -40 7 45 c4 25 7 120 6 213 0 122 3 163 10 150 7 -11 11 -81 10
-173z m-77 123 c-3 -10 -5 -4 -5 12 0 17 2 24 5 18 2 -7 2 -21 0 -30z m-30
-75 c-3 -7 -5 -2 -5 12 0 14 2 19 5 13 2 -7 2 -19 0 -25z m60 -105 c-2 -16 -4
-3 -4 27 0 30 2 43 4 28 2 -16 2 -40 0 -55z m-19 -243 c-7 -10 -14 -17 -17
-15 -4 4 18 35 25 35 2 0 -1 -9 -8 -20z m67 -110 c10 -11 16 -20 13 -20 -3 0
-13 9 -23 20 -10 11 -16 20 -13 20 3 0 13 -9 23 -20z m20 -170 c5 -36 1 -29
-16 25 -6 20 -6 26 1 19 5 -5 12 -25 15 -44z m-231 5 c21 -21 38 -49 42 -72 9
-49 -3 -308 -16 -356 -16 -55 -39 -64 -177 -72 l-123 -7 0 271 0 271 120 0
119 0 35 -35z m-407 -297 c-1 -62 -3 -14 -3 107 0 121 2 172 3 113 2 -59 2
-158 0 -220z m32 55 c-1 -170 -5 -248 -9 -213 -12 85 -12 480 0 480 6 0 10
-95 9 -267z m508 225 c-3 -8 -6 -5 -6 6 -1 11 2 17 5 13 3 -3 4 -12 1 -19z
m113 -283 c-6 -77 -7 -65 -7 85 0 146 1 161 7 90 4 -47 4 -125 0 -175z m-22
70 c-1 -165 -6 -144 -10 42 -2 73 0 125 4 115 4 -9 6 -80 6 -157z m-81 23 c-2
-29 -3 -8 -3 47 0 55 1 79 3 53 2 -26 2 -71 0 -100z m40 -50 c-2 -18 -4 -6 -4
27 0 33 2 48 4 33 2 -15 2 -42 0 -60z m-500 -150 c-2 -18 -4 -6 -4 27 0 33 2
48 4 33 2 -15 2 -42 0 -60z m490 0 c-3 -7 -5 -2 -5 12 0 14 2 19 5 13 2 -7 2
-19 0 -25z m40 0 c-3 -7 -5 -2 -5 12 0 14 2 19 5 13 2 -7 2 -19 0 -25z m-510
-65 c-2 -16 -4 -5 -4 22 0 28 2 40 4 28 2 -13 2 -35 0 -50z m440 35 c-3 -8 -6
-5 -6 6 -1 11 2 17 5 13 3 -3 4 -12 1 -19z m17 -39 c-5 -32 -17 -53 -44 -79
-20 -19 -43 -36 -50 -38 -8 -2 4 13 27 32 31 27 44 48 54 86 15 60 22 59 13
-1z m43 19 c-3 -8 -6 -5 -6 6 -1 11 2 17 5 13 3 -3 4 -12 1 -19z m17 -32 c-3
-15 -8 -25 -11 -23 -2 3 -1 17 3 31 3 15 8 25 11 23 2 -3 1 -17 -3 -31z m-364
-32 c-100 -15 -136 -17 -126 -6 4 4 38 10 74 13 115 10 141 7 52 -7z m-37 -41
c-13 -2 -33 -2 -45 0 -13 2 -3 4 22 4 25 0 35 -2 23 -4z m346 -29 c-33 -35
-69 -60 -99 -68 -14 -4 -5 4 20 18 25 13 56 36 69 50 14 14 27 26 29 26 3 0
-5 -12 -19 -26z m-266 9 c-7 -2 -21 -2 -30 0 -10 3 -4 5 12 5 17 0 24 -2 18
-5z m-70 -10 c-13 -2 -35 -2 -50 0 -16 2 -5 4 22 4 28 0 40 -2 28 -4z m137
-33 c-19 -13 -30 -13 -30 0 0 6 10 10 23 10 18 0 19 -2 7 -10z m290 7 c0 -2
-17 -19 -37 -38 l-38 -34 34 38 c33 34 41 42 41 34z m-353 -23 c-3 -3 -12 -4
-19 -1 -8 3 -5 6 6 6 11 1 17 -2 13 -5z m66 -21 c-7 -2 -19 -2 -25 0 -7 3 -2
5 12 5 14 0 19 -2 13 -5z m64 -9 c-3 -3 -12 -4 -19 -1 -8 3 -5 6 6 6 11 1 17
-2 13 -5z m-44 -11 c-7 -2 -21 -2 -30 0 -10 3 -4 5 12 5 17 0 24 -2 18 -5z
m-75 -10 c-10 -2 -28 -2 -40 0 -13 2 -5 4 17 4 22 1 32 -1 23 -4z m-100 -10
c-15 -2 -42 -2 -60 0 -18 2 -6 4 27 4 33 0 48 -2 33 -4z"/>
<path d="M10160 5883 l-145 -4 -25 -32 -25 -31 -3 -920 c-2 -830 -1 -918 13
-906 8 7 18 10 22 7 3 -4 12 -2 20 5 7 6 17 7 21 3 4 -4 1 -10 -5 -12 -23 -8
-14 -20 20 -28 60 -13 92 -15 107 -5 13 8 13 13 2 31 -13 21 -13 21 9 5 13 -9
32 -16 41 -16 25 0 41 45 32 93 -3 22 -3 183 1 358 l8 319 33 0 c27 0 34 -4
34 -19 0 -10 31 -99 69 -197 37 -99 74 -197 81 -219 7 -22 39 -98 71 -168 33
-70 59 -134 59 -141 0 -8 19 -18 43 -25 34 -8 44 -8 53 4 10 14 30 15 50 3 12
-8 40 -5 50 5 3 3 13 0 21 -8 19 -20 33 -19 33 3 1 15 2 15 15 -2 10 -14 18
-17 25 -10 7 7 4 25 -9 57 -11 26 -17 55 -14 64 5 12 3 14 -7 8 -10 -6 -12 -4
-7 9 4 11 3 15 -4 10 -8 -4 -9 1 -4 16 5 15 4 20 -4 16 -15 -10 -14 7 2 23 10
11 9 13 -6 8 -15 -6 -16 -4 -6 14 8 17 8 20 -1 14 -9 -5 -10 -1 -5 15 4 12 3
20 -1 17 -5 -3 -10 5 -10 17 -1 12 -18 56 -38 99 -19 42 -38 91 -41 108 -3 17
-15 48 -25 70 -11 21 -20 48 -20 59 0 12 -4 19 -9 16 -12 -8 -22 20 -14 41 4
10 2 14 -4 10 -6 -4 -17 17 -27 51 -18 65 -23 56 67 119 36 25 54 49 87 115
57 115 74 219 67 403 -8 205 -44 319 -130 412 -95 104 -206 126 -567 116z
m473 -182 c16 -14 33 -35 38 -46 7 -14 3 -12 -13 6 -13 15 -41 39 -63 54 -29
20 -33 25 -15 20 14 -4 38 -19 53 -34z m-276 -28 c-20 -2 -52 -2 -70 0 -17 2
0 4 38 4 39 0 53 -2 32 -4z m116 -10 c-7 -2 -21 -2 -30 0 -10 3 -4 5 12 5 17
0 24 -2 18 -5z m64 -9 c-3 -3 -12 -4 -19 -1 -8 3 -5 6 6 6 11 1 17 -2 13 -5z
m-204 -21 c-13 -2 -35 -2 -50 0 -16 2 -5 4 22 4 28 0 40 -2 28 -4z m218 -40
c13 -16 12 -17 -3 -4 -10 7 -18 15 -18 17 0 8 8 3 21 -13z m170 -50 c19 -59
22 -88 21 -223 -1 -109 -6 -168 -17 -200 -8 -25 -12 -34 -9 -20 3 14 8 93 11
177 4 122 2 167 -12 229 -10 43 -20 84 -22 91 -3 7 -3 13 1 13 3 0 15 -30 27
-67z m-541 -208 c0 -150 -4 -235 -10 -235 -5 0 -10 8 -10 18 0 14 -2 15 -10 2
-6 -10 -10 43 -10 159 0 96 -2 172 -5 170 -2 -3 -7 -81 -9 -173 -3 -92 -7
-171 -10 -174 -3 -3 -5 100 -4 229 0 131 4 214 8 189 l7 -45 1 48 c2 43 4 47
27 47 l25 0 0 -235z m35 224 c-4 -5 -7 -111 -6 -235 0 -143 -3 -223 -9 -219
-6 4 -10 98 -10 236 0 201 2 229 16 229 8 0 12 -5 9 -11z m275 -2 c55 -28 79
-141 62 -293 -6 -57 -16 -113 -22 -123 -15 -30 -65 -41 -176 -41 l-104 0 0
235 0 235 108 0 c66 0 117 -5 132 -13z m-413 -59 c-2 -13 -4 -5 -4 17 -1 22 1
32 4 23 2 -10 2 -28 0 -40z m550 -130 c6 -110 -10 -229 -35 -273 -10 -16 -41
-43 -70 -58 -45 -25 -58 -27 -99 -20 l-48 7 66 6 c81 8 124 35 151 97 16 37
20 69 21 181 0 75 -2 162 -6 192 -6 55 -6 55 4 10 6 -25 13 -88 16 -142z m30
-80 c-2 -29 -3 -8 -3 47 0 55 1 79 3 53 2 -26 2 -71 0 -100z m-46 -221 c-10
-9 -11 -8 -5 6 3 10 9 15 12 12 3 -3 0 -11 -7 -18z m80 -45 c-18 -35 -55 -72
-98 -96 -29 -16 -10 3 25 26 21 14 49 46 62 71 13 25 26 44 28 42 2 -1 -6 -21
-17 -43z m-398 -39 c-7 -2 -19 -2 -25 0 -7 3 -2 5 12 5 14 0 19 -2 13 -5z
m184 1 c-3 -3 -12 -4 -19 -1 -8 3 -5 6 6 6 11 1 17 -2 13 -5z m113 -29 c-7 -8
-18 -15 -24 -15 -6 0 -2 7 8 15 25 19 32 19 16 0z m-57 -26 c-16 -16 -173 -33
-186 -20 -8 8 7 11 54 12 35 1 75 5 89 9 39 12 56 12 43 -1z m32 -19 c-3 -5
-12 -10 -18 -10 -7 0 -6 4 3 10 19 12 23 12 15 0z m14 -156 c8 5 145 -344 137
-351 -2 -2 -12 18 -21 46 -9 28 -21 51 -25 51 -5 0 -6 7 -3 17 4 11 3 14 -5 9
-8 -5 -10 -1 -5 10 5 12 3 15 -6 9 -10 -6 -11 -2 -6 15 4 14 3 20 -3 16 -13
-8 -23 19 -15 41 5 12 3 14 -7 8 -10 -6 -12 -4 -7 8 3 10 3 17 -2 17 -8 0 -52
104 -50 118 0 4 3 1 6 -6 2 -6 8 -10 12 -8z m-19 -170 c23 -71 47 -134 51
-139 4 -6 35 -82 69 -170 34 -88 71 -177 82 -198 27 -54 15 -58 -16 -5 -27 46
-36 69 -156 393 -43 116 -85 228 -94 250 -16 39 -16 40 2 19 10 -12 38 -79 62
-150z m-433 4 c-2 -29 -3 -6 -3 52 0 58 1 81 3 53 2 -29 2 -77 0 -105z m63
-137 c0 -183 -4 -292 -10 -296 -6 -4 -10 10 -10 35 0 25 -4 39 -10 35 -11 -7
-12 24 -10 295 1 85 5 159 10 164 6 6 10 20 10 33 0 13 5 23 10 23 6 0 10
-103 10 -289z m30 17 c0 -149 -2 -269 -5 -267 -15 16 -15 539 1 539 2 0 4
-122 4 -272z m-123 -230 c-1 -46 -3 -9 -3 82 0 91 2 128 3 83 2 -46 2 -120 0
-165z m439 75 c-5 -5 -36 86 -35 101 0 6 9 -13 20 -43 10 -30 17 -56 15 -58z
m284 -163 c53 -131 67 -181 25 -92 -13 29 -31 60 -40 68 -8 9 -13 19 -10 24 2
4 -4 34 -15 65 -11 32 -20 60 -20 63 0 15 15 -17 60 -128z m-675 -170 c3 -5
-1 -10 -9 -10 -9 0 -16 5 -16 10 0 6 4 10 9 10 6 0 13 -4 16 -10z"/>
<path d="M10163 4380 c0 -47 2 -66 4 -42 2 23 2 61 0 85 -2 23 -4 4 -4 -43z"/>
<path d="M14790 5881 c-128 -6 -136 -7 -162 -32 l-28 -26 -1 -694 c0 -382 -5
-748 -10 -814 -12 -157 -13 -174 -8 -215 4 -31 8 -35 38 -38 32 -3 33 -2 29
26 -4 29 -3 30 41 34 25 3 109 5 185 7 77 1 144 5 150 8 5 3 6 1 2 -5 -10 -17
2 -15 85 14 84 29 153 87 195 164 14 25 22 34 18 20 -14 -53 -82 -135 -139
-167 -21 -12 -12 -35 10 -27 8 4 12 10 9 15 -3 5 3 9 13 9 22 0 80 58 112 112
12 20 28 68 35 105 l13 68 0 -77 c0 -42 -4 -83 -8 -90 -6 -10 -9 -8 -10 7 0
11 -6 2 -13 -20 -7 -22 -11 -43 -9 -47 2 -4 -12 -19 -32 -33 -19 -15 -32 -32
-28 -38 3 -6 1 -7 -5 -3 -6 3 -33 -7 -59 -23 -26 -16 -77 -38 -113 -47 -36
-10 -68 -22 -71 -26 -16 -23 -328 -41 -314 -18 3 6 0 10 -7 10 -8 0 -7 4 4 11
10 5 75 14 145 19 70 6 140 11 156 13 15 2 36 4 47 5 11 1 20 7 20 13 0 7 -7
8 -17 4 -10 -4 -36 -9 -58 -10 -22 -1 -86 -6 -142 -10 -92 -7 -103 -6 -103 8
0 21 -26 22 -34 2 -3 -8 -17 -15 -32 -15 -20 0 -25 -4 -20 -17 4 -9 1 -20 -6
-25 -11 -6 -10 -8 0 -8 7 0 11 -4 8 -9 -3 -5 59 -11 142 -13 208 -7 388 29
430 85 7 9 17 15 21 12 9 -5 91 74 91 87 0 4 5 8 11 8 18 0 -24 -61 -66 -95
-22 -18 -62 -44 -90 -58 -27 -14 -46 -26 -42 -27 25 -1 129 65 167 107 25 26
48 47 53 45 4 -1 6 1 5 5 -3 14 13 53 20 49 4 -2 7 6 7 17 1 12 4 33 8 47 4
16 1 13 -8 -7 -22 -47 -25 -41 -9 15 8 26 12 57 9 69 -3 12 0 23 6 25 8 3 14
56 18 153 5 124 7 139 12 85 3 -40 7 19 9 150 2 118 6 193 9 165 5 -43 8 57
13 530 1 81 -2 98 -32 170 -55 129 -142 197 -295 230 -71 15 -129 16 -375 6z
m546 -251 c15 -22 25 -42 23 -44 -2 -2 -16 16 -31 40 -34 55 -28 58 8 4z m-86
-32 c0 -12 -6 -9 -26 13 -19 22 -19 22 4 8 12 -8 22 -17 22 -21z m-158 -44
c21 -4 48 -17 61 -30 45 -45 52 -104 50 -419 -3 -419 -17 -653 -41 -708 -11
-25 -25 -48 -31 -51 -6 -4 -9 -12 -6 -17 3 -5 -2 -6 -11 -2 -12 4 -15 3 -10
-5 5 -8 -3 -12 -26 -13 -31 -1 -32 -1 -8 -9 28 -9 35 -8 -80 -17 -74 -5 -93
-13 -34 -13 21 0 46 -5 54 -11 13 -9 13 -10 -1 -6 -9 3 -21 1 -27 -5 -11 -11
-84 10 -76 23 2 4 0 10 -6 14 -5 3 -11 41 -12 83 l-2 77 -6 -80 c-7 -79 -3
580 5 810 2 66 4 180 4 253 l1 132 83 0 c45 0 99 -3 119 -6z m-404 -395 c3
-362 -5 -875 -14 -866 -10 10 -9 1257 1 1254 6 -2 11 -143 13 -388z m621 331
c0 -13 -1 -13 -8 0 -5 8 -12 26 -15 40 l-7 25 15 -25 c9 -14 15 -32 15 -40z
m-692 -87 c-2 -27 -3 -5 -3 47 0 52 1 74 3 48 2 -27 2 -69 0 -95z m243 -416
c0 -505 -5 -715 -18 -703 -2 3 -4 112 -4 243 -1 138 -4 215 -8 183 -4 -30 -7
78 -6 240 0 178 2 255 6 195 4 -73 7 -32 8 148 1 157 6 247 12 247 7 0 10
-191 10 -553z m17 461 c-2 -13 -4 -3 -4 22 0 25 2 35 4 23 2 -13 2 -33 0 -45z
m520 -5 c-3 -10 -5 -2 -5 17 0 19 2 27 5 18 2 -10 2 -26 0 -35z m10 -90 c-3
-10 -5 -4 -5 12 0 17 2 24 5 18 2 -7 2 -21 0 -30z m-160 -340 c-1 -60 -3 -11
-3 107 0 118 2 167 3 108 2 -60 2 -156 0 -215z m80 235 c-3 -7 -5 -2 -5 12 0
14 2 19 5 13 2 -7 2 -19 0 -25z m60 -125 c-3 -10 -5 -4 -5 12 0 17 2 24 5 18
2 -7 2 -21 0 -30z m-580 -326 c-1 -45 -3 -5 -3 88 0 94 2 130 3 82 2 -48 2
-125 0 -170z m-77 -25 c-7 -13 -9 -8 -9 23 0 35 1 37 10 17 6 -15 5 -30 -1
-40z m507 -94 c-2 -29 -3 -8 -3 47 0 55 1 79 3 53 2 -26 2 -71 0 -100z m120
-130 c-1 -40 -3 -10 -3 67 0 77 1 110 3 73 2 -37 2 -100 0 -140z m-640 65 c-2
-21 -4 -6 -4 32 0 39 2 55 4 38 2 -18 2 -50 0 -70z m-100 45 c-3 -7 -5 -2 -5
12 0 14 2 19 5 13 2 -7 2 -19 0 -25z m650 -120 c-2 -29 -3 -8 -3 47 0 55 1 79
3 53 2 -26 2 -71 0 -100z m-448 -75 c0 -115 -4 -177 -9 -161 -7 25 -2 348 6
348 2 0 4 -84 3 -187z m-72 90 c-2 -16 -4 -5 -4 22 0 28 2 40 4 28 2 -13 2
-35 0 -50z m478 -82 c-7 -49 -20 -102 -29 -118 -21 -43 -70 -81 -112 -89 -51
-9 -53 3 -3 16 50 13 96 51 115 96 7 17 16 77 20 135 5 75 10 96 15 76 4 -15
1 -67 -6 -116z m185 -1 c-9 -21 -10 -17 -5 24 3 27 6 65 7 85 1 20 3 9 5 -24
2 -34 -1 -72 -7 -85z m-93 13 c-2 -21 -4 -4 -4 37 0 41 2 58 4 38 2 -21 2 -55
0 -75z m-530 -10 c-2 -16 -4 -5 -4 22 0 28 2 40 4 28 2 -13 2 -35 0 -50z m-60
-35 c-2 -18 -4 -6 -4 27 0 33 2 48 4 33 2 -15 2 -42 0 -60z m-20 20 c-2 -13
-4 -5 -4 17 -1 22 1 32 4 23 2 -10 2 -28 0 -40z m643 -23 c0 -23 -3 -27 -10
-15 -5 8 -10 29 -10 45 0 23 3 27 10 15 5 -8 10 -28 10 -45z m-100 -45 c-16
-59 -19 -46 -6 25 6 33 12 50 14 38 2 -12 -2 -40 -8 -63z m158 15 c-3 -3 -9 2
-12 12 -6 14 -5 15 5 6 7 -7 10 -15 7 -18z m-697 -78 c-8 -8 -11 2 -10 39 l1
49 10 -38 c7 -28 7 -42 -1 -50z m626 41 c-3 -8 -6 -5 -6 6 -1 11 2 17 5 13 3
-3 4 -12 1 -19z m-161 -93 c-22 -19 -46 -35 -55 -35 -9 0 -2 8 16 16 17 9 39
24 49 35 9 10 20 19 23 19 3 -1 -12 -16 -33 -35z m-136 -49 c0 -2 -7 -6 -15
-10 -8 -3 -15 -1 -15 4 0 6 7 10 15 10 8 0 15 -2 15 -4z m-113 -12 c-3 -3 -12
-4 -19 -1 -8 3 -5 6 6 6 11 1 17 -2 13 -5z"/>
<path d="M14894 4865 c0 -148 2 -211 3 -138 2 72 2 194 0 270 -1 76 -3 17 -3
-132z"/>
<path d="M14834 4935 c0 -49 1 -71 3 -48 2 23 2 64 0 90 -2 26 -3 8 -3 -42z"/>
<path d="M5624 5844 c0 -18 3 -31 7 -28 4 2 10 -4 12 -13 3 -10 5 3 6 28 1 31
-3 46 -12 46 -8 0 -13 -13 -13 -33z"/>
<path d="M11384 5844 c0 -18 3 -31 7 -28 4 2 10 -4 12 -13 3 -10 5 3 6 28 1
31 -3 46 -12 46 -8 0 -13 -13 -13 -33z"/>
<path d="M2207 5802 c-14 -16 -17 -42 -16 -168 l0 -149 19 58 c13 43 18 88 18
168 0 60 -2 109 -3 109 -1 0 -9 -8 -18 -18z m10 -54 c-3 -8 -6 -5 -6 6 -1 11
2 17 5 13 3 -3 4 -12 1 -19z"/>
<path d="M5653 5710 c0 -36 2 -50 4 -32 2 17 2 47 0 65 -2 17 -4 3 -4 -33z"/>
<path d="M11413 5710 c0 -36 2 -50 4 -32 2 17 2 47 0 65 -2 17 -4 3 -4 -33z"/>
<path d="M5623 5635 c0 -33 2 -45 4 -27 2 18 2 45 0 60 -2 15 -4 0 -4 -33z"/>
<path d="M11383 5635 c0 -33 2 -45 4 -27 2 18 2 45 0 60 -2 15 -4 0 -4 -33z"/>
<path d="M4620 5652 c0 -5 22 -19 49 -31 89 -42 101 -57 121 -151 l18 -85 1
60 c1 79 -21 121 -84 162 -27 18 -45 33 -40 34 15 1 -28 17 -47 18 -10 1 -18
-3 -18 -7z"/>
<path d="M5644 5420 c0 -102 2 -143 3 -92 2 50 2 134 0 185 -1 50 -3 9 -3 -93z"/>
<path d="M11404 5420 c0 -102 2 -143 3 -92 2 50 2 134 0 185 -1 50 -3 9 -3
-93z"/>
<path d="M3714 5425 c0 -82 2 -115 3 -72 2 43 2 110 0 150 -1 40 -3 5 -3 -78z"/>
<path d="M7352 5520 c0 -14 2 -19 5 -12 2 6 2 18 0 25 -3 6 -5 1 -5 -13z"/>
<path d="M9393 5480 c0 -36 2 -50 4 -32 2 17 2 47 0 65 -2 17 -4 3 -4 -33z"/>
<path d="M7393 5445 c0 -22 2 -30 4 -17 2 12 2 30 0 40 -3 9 -5 -1 -4 -23z"/>
<path d="M4454 5200 c0 -58 1 -81 3 -52 2 28 2 76 0 105 -2 28 -3 5 -3 -53z"/>
<path d="M15503 5255 c0 -27 2 -38 4 -22 2 15 2 37 0 50 -2 12 -4 0 -4 -28z"/>
<path d="M7321 5033 c-10 -26 -10 -27 4 -9 8 11 15 23 15 28 0 15 -7 8 -19
-19z"/>
<path d="M7290 4885 c13 -14 26 -25 28 -25 3 0 -5 11 -18 25 -13 14 -26 25
-28 25 -3 0 5 -11 18 -25z"/>
<path d="M7365 4823 c35 -84 47 -127 54 -192 6 -50 9 -62 10 -35 0 23 4 57 7
75 4 26 3 30 -5 19 -9 -12 -11 -9 -11 15 0 30 -43 135 -56 135 -3 0 -3 -8 1
-17z"/>
<path d="M7401 4820 c14 -31 19 -36 19 -24 0 6 -7 19 -16 30 -14 18 -14 18 -3
-6z"/>
<path d="M15462 4490 c0 -14 2 -19 5 -12 2 6 2 18 0 25 -3 6 -5 1 -5 -13z"/>
<path d="M15452 4415 c0 -11 3 -29 8 -40 11 -25 11 1 0 35 -6 20 -8 21 -8 5z"/>
<path d="M15440 4331 c0 -6 5 -13 10 -16 6 -3 10 1 10 9 0 9 -4 16 -10 16 -5
0 -10 -4 -10 -9z"/>
<path d="M5642 4110 c0 -14 2 -19 5 -12 2 6 2 18 0 25 -3 6 -5 1 -5 -13z"/>
<path d="M11402 4110 c0 -14 2 -19 5 -12 2 6 2 18 0 25 -3 6 -5 1 -5 -13z"/>
<path d="M14913 4110 c21 -4 53 -4 70 0 24 6 15 8 -38 8 -58 0 -64 -2 -32 -8z"/>
<path d="M14913 4043 c9 -2 23 -2 30 0 6 3 -1 5 -18 5 -16 0 -22 -2 -12 -5z"/>
<path d="M14610 4025 c7 -8 16 -15 20 -15 3 0 7 7 7 15 0 8 -9 15 -20 15 -16
0 -17 -3 -7 -15z"/>
<path d="M15078 3993 c7 -3 16 -2 19 1 4 3 -2 6 -13 5 -11 0 -14 -3 -6 -6z"/>
<path d="M15028 3983 c7 -3 16 -2 19 1 4 3 -2 6 -13 5 -11 0 -14 -3 -6 -6z"/>
<path d="M14698 3973 c7 -3 16 -2 19 1 4 3 -2 6 -13 5 -11 0 -14 -3 -6 -6z"/>
<path d="M9090 3960 c8 -5 22 -10 30 -10 13 0 13 1 0 10 -8 5 -22 10 -30 10
-13 0 -13 -1 0 -10z"/>
<path d="M9363 3793 c-25 -5 -30 -18 -12 -29 19 -12 3 -147 -35 -289 -19 -71
-72 -245 -116 -385 -158 -496 -238 -802 -258 -993 -6 -49 -11 -90 -13 -91 -24
-22 -137 -86 -160 -91 -82 -18 -78 39 29 365 44 135 87 280 96 322 31 149 15
272 -40 319 -53 46 -174 50 -255 9 -48 -25 -143 -118 -172 -168 l-18 -32 23 3
c22 2 23 -1 22 -63 0 -36 -10 -97 -22 -137 -19 -60 -27 -74 -57 -92 -49 -29
-109 -45 -139 -37 -43 11 -36 74 31 277 52 159 57 182 57 266 1 88 0 94 -27
120 -25 26 -34 28 -105 28 -101 0 -166 -30 -254 -116 -117 -115 -200 -259
-317 -554 -90 -227 -112 -275 -124 -275 -16 0 -1 50 74 258 93 258 121 364
122 472 1 139 -35 178 -155 167 -81 -7 -196 -65 -298 -149 -70 -58 -73 -63
-50 -68 42 -10 39 -81 -11 -273 -106 -409 -131 -569 -110 -693 27 -154 100
-219 246 -219 128 0 128 0 155 102 12 49 53 180 90 293 143 434 289 750 346
750 27 0 14 -55 -47 -195 -85 -196 -109 -269 -115 -350 -6 -85 13 -131 66
-157 107 -54 265 14 481 204 50 44 89 72 85 62 -131 -436 -139 -639 -25 -696
115 -59 286 18 485 217 l91 92 12 -80 c13 -96 48 -176 88 -205 38 -27 117 -45
157 -36 83 18 209 102 343 228 l82 77 6 -48 c24 -180 87 -256 214 -257 101 0
223 78 422 272 141 136 164 168 86 118 -137 -88 -215 -89 -238 -4 -19 73 12
236 107 561 164 560 187 665 188 872 1 122 -2 159 -17 197 -21 55 -79 110
-132 128 -38 13 -208 10 -221 -3 -4 -4 -1 -13 6 -22 33 -40 -11 -238 -150
-675 -150 -472 -238 -805 -255 -965 -12 -122 -12 -121 -58 -139 -84 -32 -130
-18 -148 46 -19 73 12 236 107 561 164 560 187 665 188 872 1 167 -7 205 -57
262 -48 54 -97 73 -192 71 -44 0 -90 -3 -102 -5z"/>
<path d="M8798 3651 c-51 -16 -190 -99 -203 -121 -3 -5 4 -11 15 -15 26 -8 26
-47 -2 -189 -25 -130 -21 -171 23 -221 37 -42 109 -61 193 -51 53 7 59 11 91
54 39 53 104 182 130 257 10 28 20 82 22 120 4 62 2 74 -19 104 -12 19 -35 43
-50 54 -39 29 -127 32 -200 8z"/>
<path d="M6505 3580 c-165 -43 -269 -103 -385 -219 -97 -98 -156 -193 -203
-329 -26 -73 -31 -106 -35 -207 -7 -190 34 -312 138 -416 98 -99 212 -142 377
-142 91 0 95 -1 90 -21 -2 -11 -23 -109 -45 -216 -94 -444 -199 -618 -386
-637 -48 -5 -54 -3 -74 21 -79 102 -29 394 103 596 50 76 86 113 139 138 l38
19 -51 21 c-219 95 -416 51 -533 -117 -132 -189 -125 -459 16 -609 100 -107
230 -145 423 -124 365 40 594 210 736 549 57 135 87 246 132 493 40 221 58
290 86 339 11 18 19 35 17 36 -2 2 -37 8 -79 14 -198 27 -334 -50 -424 -242
-24 -51 -49 -112 -56 -135 l-13 -44 -40 7 c-121 19 -176 121 -162 301 24 318
242 750 424 843 55 28 123 28 148 0 26 -29 30 -127 9 -208 -22 -87 -87 -213
-137 -267 l-40 -44 28 -11 c64 -24 171 -41 235 -36 171 14 291 101 320 234 43
191 -124 366 -399 419 -106 20 -310 17 -397 -6z"/>
<path d="M5850 1058 c-57 -30 -82 -65 -88 -126 -8 -83 28 -143 128 -215 54
-40 70 -68 70 -128 0 -55 -17 -74 -57 -65 -16 4 -33 7 -39 8 -6 1 -9 10 -6 20
2 10 -1 18 -7 18 -6 0 -11 5 -11 11 0 5 5 7 11 4 7 -5 9 8 7 37 l-3 43 -45 0
-45 0 -3 -40 c-6 -74 7 -126 42 -161 39 -39 71 -49 132 -39 87 13 136 85 128
189 -7 88 -59 163 -144 206 -54 27 -74 60 -67 108 15 88 102 82 114 -8 7 -50
15 -60 55 -60 33 0 44 30 33 87 -11 61 -33 93 -78 114 -54 24 -73 24 -127 -3z
m121 -325 c13 -16 12 -17 -3 -4 -10 7 -18 15 -18 17 0 8 8 3 21 -13z"/>
<path d="M6412 1060 c-68 -42 -91 -165 -74 -405 11 -155 24 -188 85 -216 53
-23 81 -23 134 0 53 24 75 65 81 152 l5 67 -37 4 c-53 6 -66 -5 -66 -61 0 -58
-23 -86 -64 -75 -37 9 -41 34 -39 234 3 238 1 224 46 228 21 2 37 -1 37 -7 0
-6 6 -10 13 -8 8 1 13 -17 15 -61 3 -71 14 -82 62 -62 28 11 30 16 30 62 0 62
-19 107 -59 141 -42 35 -118 38 -169 7z m161 -62 c11 -14 17 -34 15 -44 -4
-16 -6 -15 -16 7 -15 36 -49 59 -92 60 l-35 2 35 6 c45 9 70 0 93 -31z m-146
4 c-9 -10 -24 -36 -32 -58 -9 -23 -14 -29 -11 -14 2 14 7 34 11 44 6 15 5 17
-5 11 -9 -5 -11 -4 -6 4 4 6 11 9 16 6 4 -3 13 2 20 10 7 8 15 15 18 15 3 0
-2 -8 -11 -18z m-40 -134 c-3 -7 -5 -2 -5 12 0 14 2 19 5 13 2 -7 2 -19 0 -25z
m30 -130 c-2 -13 -4 -5 -4 17 -1 22 1 32 4 23 2 -10 2 -28 0 -40z m-30 -80
c-2 -13 -4 -3 -4 22 0 25 2 35 4 23 2 -13 2 -33 0 -45z"/>
<path d="M6788 1072 c-21 -2 -38 -4 -39 -5 -5 -13 -9 -543 -4 -583 l6 -54 129
0 c120 0 129 1 135 20 4 11 3 34 0 51 -6 25 -11 30 -33 29 -15 -1 -53 -2 -85
-1 l-58 1 2 266 c0 146 -3 269 -7 273 -5 3 -26 5 -46 3z m7 -385 c4 -107 3
-157 -5 -157 -6 0 -10 55 -10 162 0 89 2 159 5 157 2 -3 7 -76 10 -162z m32
-149 c-3 -8 -6 -5 -6 6 -1 11 2 17 5 13 3 -3 4 -12 1 -19z"/>
<path d="M8936 1070 c-83 -25 -98 -78 -96 -343 1 -219 5 -238 61 -278 39 -27
136 -30 174 -5 55 36 60 61 60 312 l0 230 -28 37 c-38 50 -102 67 -171 47z
m92 -108 c16 -14 21 -32 24 -90 1 -40 -1 -72 -6 -72 -5 0 -6 -27 -3 -60 3 -34
1 -60 -4 -60 -5 0 -7 -17 -4 -37 3 -21 -1 -54 -8 -73 -11 -31 -16 -35 -47 -35
l-35 0 -3 199 c-2 166 0 203 13 222 18 29 44 31 73 6z m-101 -379 c-2 -16 -4
-3 -4 27 0 30 2 43 4 28 2 -16 2 -40 0 -55z"/>
<path d="M9336 1070 c-83 -25 -98 -78 -96 -343 1 -219 5 -238 61 -278 39 -27
136 -30 174 -5 55 36 60 61 60 312 l0 230 -28 37 c-38 50 -102 67 -171 47z
m92 -108 c16 -14 21 -32 24 -90 1 -40 -1 -72 -6 -72 -5 0 -6 -27 -3 -60 3 -34
1 -60 -4 -60 -5 0 -7 -17 -4 -37 3 -21 -1 -54 -8 -73 -11 -31 -16 -35 -47 -35
l-35 0 -3 199 c-2 166 0 203 13 222 18 29 44 31 73 6z m-101 -379 c-2 -16 -4
-3 -4 27 0 30 2 43 4 28 2 -16 2 -40 0 -55z"/>
<path d="M10140 1058 c-57 -30 -82 -65 -88 -126 -8 -83 28 -143 128 -215 54
-40 70 -68 70 -128 0 -55 -17 -74 -57 -65 -16 4 -33 7 -39 8 -6 1 -9 10 -6 20
2 10 -1 18 -7 18 -6 0 -11 5 -11 11 0 5 5 7 11 4 7 -5 9 8 7 37 l-3 43 -45 0
-45 0 -3 -40 c-6 -74 7 -126 42 -161 39 -39 71 -49 132 -39 87 13 136 85 128
189 -7 88 -59 163 -144 206 -54 27 -74 60 -67 108 15 88 102 82 114 -8 7 -50
15 -60 55 -60 33 0 44 30 33 87 -11 61 -33 93 -78 114 -54 24 -73 24 -127 -3z
m121 -325 c13 -16 12 -17 -3 -4 -10 7 -18 15 -18 17 0 8 8 3 21 -13z"/>
<path d="M7111 1056 c-9 -10 -11 -95 -8 -309 2 -162 7 -299 10 -304 4 -6 65
-10 138 -11 114 -1 130 1 125 14 -3 9 -6 31 -6 50 0 36 -23 48 -34 18 -6 -15
-8 -15 -26 1 -19 17 -20 17 -20 1 0 -10 -5 -14 -11 -10 -6 3 -15 1 -19 -7 -7
-10 -14 -10 -32 -2 -21 11 -21 12 -3 12 11 1 27 6 35 12 12 8 7 9 -17 6 -37
-4 -34 -13 -37 121 -1 55 0 57 23 54 13 -2 39 -1 58 3 34 6 34 7 31 53 l-3 47
-55 3 -55 3 3 80 4 80 78 -3 79 -3 6 33 c11 60 1 66 -133 69 -93 2 -122 0
-131 -11z m222 -593 c-7 -2 -19 -2 -25 0 -7 3 -2 5 12 5 14 0 19 -2 13 -5z"/>
<path d="M7561 1033 c-6 -21 -21 -103 -35 -183 -14 -80 -37 -201 -51 -270 -13
-69 -25 -131 -25 -138 0 -9 13 -12 43 -10 42 3 42 3 51 51 7 35 14 47 28 48
10 0 37 1 61 1 l42 1 10 -48 11 -49 47 -3 c55 -4 55 -3 33 92 -8 33 -33 159
-55 280 -23 121 -44 230 -46 243 -5 19 -12 22 -55 22 -48 0 -49 -1 -59 -37z
m36 -145 c-3 -7 -5 -2 -5 12 0 14 2 19 5 13 2 -7 2 -19 0 -25z m-13 -97 c-4
-17 -9 -30 -11 -27 -3 2 -2 19 2 36 9 41 17 33 9 -9z m54 -51 c18 -107 18
-110 -23 -110 -21 0 -35 5 -35 13 0 23 35 167 40 167 3 0 11 -32 18 -70z m-71
-12 c-3 -8 -6 -5 -6 6 -1 11 2 17 5 13 3 -3 4 -12 1 -19z m-7 -39 c0 -11 -4
-17 -10 -14 -5 3 -10 13 -10 21 0 8 5 14 10 14 6 0 10 -9 10 -21z m-10 -45 c0
-8 -4 -12 -10 -9 -5 3 -10 13 -10 21 0 8 5 12 10 9 6 -3 10 -13 10 -21z"/>
<path d="M7890 1063 c0 -5 0 -134 -1 -288 -2 -391 -8 -347 48 -343 l48 3 -3
175 c-2 96 0 172 3 169 3 -3 34 -82 69 -175 l64 -169 42 -3 41 -3 -2 321 -1
321 -47 -3 -46 -3 -3 -175 -3 -175 -61 160 c-33 88 -67 168 -76 178 -15 17
-72 24 -72 10z m277 -125 c-3 -8 -6 -5 -6 6 -1 11 2 17 5 13 3 -3 4 -12 1 -19z
m-212 -231 c4 -109 2 -167 -4 -172 -7 -4 -11 25 -11 82 -1 48 -3 135 -5 193
-3 69 -1 98 5 83 5 -12 11 -96 15 -186z m184 96 l-1 -68 -9 50 c-8 45 -5 85 7
85 2 0 3 -30 3 -67z m18 30 c-3 -10 -5 -4 -5 12 0 17 2 24 5 18 2 -7 2 -21 0
-30z m-20 -150 c-3 -10 -5 -4 -5 12 0 17 2 24 5 18 2 -7 2 -21 0 -30z m20 -25
c-3 -8 -6 -5 -6 6 -1 11 2 17 5 13 3 -3 4 -12 1 -19z m0 -55 c-3 -10 -5 -4 -5
12 0 17 2 24 5 18 2 -7 2 -21 0 -30z"/>
<path d="M8521 1061 c-23 -6 -23 -6 -27 -201 -3 -107 -1 -249 3 -315 7 -105
10 -120 26 -119 9 1 28 2 41 3 23 1 23 3 28 136 3 75 7 137 9 139 2 2 26 7 53
11 40 6 47 5 41 -6 -6 -10 -5 -11 3 -4 11 10 17 44 14 78 -2 14 -12 17 -62 17
l-60 0 0 85 0 84 83 3 82 3 2 41 2 41 -52 7 c-64 7 -154 6 -186 -3z m196 -77
c-3 -3 -12 -4 -19 -1 -8 3 -5 6 6 6 11 1 17 -2 13 -5z m-180 -66 c-3 -7 -5 -2
-5 12 0 14 2 19 5 13 2 -7 2 -19 0 -25z"/>
<path d="M9658 1063 c-2 -5 -2 -149 0 -322 l4 -314 93 5 c115 6 151 24 183 91
21 45 23 61 23 219 -1 94 -5 188 -11 208 -13 49 -46 89 -86 106 -35 15 -200
20 -206 7z m190 -120 c6 -9 12 -31 13 -47 0 -17 3 -42 5 -56 10 -62 -1 -241
-17 -272 -8 -14 -78 -43 -85 -35 -1 1 -4 100 -6 221 l-5 218 41 -6 c23 -4 47
-14 54 -23z m-131 -50 c-3 -10 -5 -2 -5 17 0 19 2 27 5 18 2 -10 2 -26 0 -35z
m0 -255 c-2 -18 -4 -6 -4 27 0 33 2 48 4 33 2 -15 2 -42 0 -60z m0 -70 c-3 -8
-6 -5 -6 6 -1 11 2 17 5 13 3 -3 4 -12 1 -19z m188 -78 c-16 -17 -36 -30 -44
-30 -9 0 -1 9 17 20 18 11 35 27 39 35 3 9 8 13 11 10 3 -3 -7 -19 -23 -35z
m-98 -46 c-3 -3 -12 -4 -19 -1 -8 3 -5 6 6 6 11 1 17 -2 13 -5z"/>
<path d="M4366 1030 c-3 -8 -19 -53 -34 -100 l-29 -85 -109 -5 -109 -5 88 -64
c48 -35 87 -64 87 -65 0 -1 -15 -48 -34 -104 -19 -56 -29 -99 -23 -95 7 3 45
31 84 60 40 29 78 53 83 53 6 0 43 -24 83 -53 40 -29 77 -56 84 -60 8 -5 5 14
-8 50 -11 32 -26 79 -34 105 l-14 47 89 63 89 63 -112 5 -111 5 -32 100 c-18
55 -35 93 -38 85z"/>
<path d="M5146 1030 c-3 -8 -19 -53 -34 -100 l-29 -85 -109 -5 -109 -5 88 -64
c48 -35 87 -64 87 -65 0 -1 -15 -48 -34 -104 -19 -56 -29 -99 -23 -95 7 3 45
31 84 60 40 29 78 53 85 53 6 0 43 -24 82 -53 39 -29 76 -56 82 -60 7 -4 -3
40 -21 97 l-33 104 91 66 90 65 -114 3 -113 3 -32 100 c-18 58 -34 94 -38 85z"/>
<path d="M10912 940 l-33 -99 -110 -3 -110 -3 85 -60 c47 -33 85 -67 86 -76 0
-8 -13 -55 -30 -104 -16 -49 -29 -90 -27 -91 1 -1 41 26 88 60 l86 63 86 -63
c48 -35 87 -60 87 -56 0 5 -14 48 -30 97 -17 50 -28 95 -26 101 2 6 42 38 88
70 l83 59 -110 3 -111 3 -33 99 c-18 55 -33 100 -35 100 -1 0 -16 -45 -34
-100z"/>
<path d="M11692 940 l-33 -99 -110 -3 -111 -3 90 -63 90 -64 -34 -101 c-19
-55 -33 -102 -31 -103 1 -1 41 26 88 61 l86 63 87 -64 c47 -35 86 -60 86 -56
0 5 -11 40 -23 78 -44 129 -48 115 50 186 l87 63 -110 3 -110 3 -29 92 c-16
51 -32 95 -35 99 -3 4 -20 -37 -38 -92z"/>
</g>
</svg>
